<?xml version="1.0" encoding="utf-8"?>
<!-- Generator: Adobe Illustrator 16.0.0, SVG Export Plug-In . SVG Version: 6.00 Build 0)  -->
<!DOCTYPE svg PUBLIC "-//W3C//DTD SVG 1.1//EN" "http://www.w3.org/Graphics/SVG/1.1/DTD/svg11.dtd">
<svg version="1.1" id="Capa_1" xmlns="http://www.w3.org/2000/svg" xmlns:xlink="http://www.w3.org/1999/xlink" x="0px" y="0px"
	 width="600px" height="600px" viewBox="0 0 600 600" enable-background="new 0 0 600 600" xml:space="preserve">
<rect y="1" fill="none" width="600" height="600"/>
<path fill="#F2F2F2" d="M238.042,526.312l-15.084,13.887l11.987-20.114c-9.444-17.127-24.891-31.929-24.891-31.929
	s-32.046,30.702-32.046,54.836c0,24.135,14.347,32.562,32.046,32.562c17.698,0,32.046-8.427,32.046-32.562
	C242.1,537.62,240.51,531.923,238.042,526.312z"/>
<path fill="#FFFFFF" d="M219.079,540.949v1.19c-0.071,13.827-2.403,24.616-6.979,32.213c-0.065,0.112-0.136,0.219-0.201,0.33
	l-0.512-0.312l-0.489-0.307c5.077-8.204,6.872-19.8,6.938-31.86c0.006-0.389,0.012-0.783,0.006-1.178
	c-0.018-5.106-0.329-10.271-0.83-15.288c-0.036-0.389-0.077-0.783-0.118-1.178c-0.695-6.62-1.696-12.944-2.721-18.439
	c-0.07-0.389-0.147-0.777-0.224-1.16c-1.772-9.293-3.581-16.024-3.993-17.515c-0.047-0.183-0.076-0.282-0.082-0.306l0.559-0.159
	l0.006-0.006l0.565-0.159c0.006,0.023,0.106,0.359,0.271,0.983c0.63,2.332,2.268,8.663,3.875,17.014
	c0.071,0.377,0.147,0.766,0.218,1.154c0.835,4.458,1.655,9.44,2.302,14.67c0.165,1.313,0.313,2.609,0.441,3.887
	c0.048,0.395,0.089,0.789,0.124,1.179C218.778,531.127,219.059,536.209,219.079,540.949z"/>
<path fill="#FFFFFF" d="M215.15,504.813c-0.395,0.054-0.795,0.106-1.201,0.147c-1.104,0.113-2.212,0.171-3.322,0.171
	c-4.728,0.007-9.396-1.048-13.663-3.086c-0.248,0.313-0.495,0.624-0.748,0.942c4.488,2.19,9.417,3.326,14.411,3.321
	c1.185,0,2.368-0.063,3.545-0.188c0.4-0.041,0.801-0.094,1.195-0.153c3.258-0.467,6.424-1.426,9.394-2.844
	c-0.253-0.324-0.501-0.643-0.742-0.954C221.209,503.483,218.22,504.374,215.15,504.813z"/>
<path fill="#FFFFFF" d="M218.112,524.524c-0.406,0.024-0.813,0.036-1.219,0.036c-0.123,0.006-0.253,0.006-0.377,0.006
	c-10.397,0-20.137-5.088-26.077-13.622c-0.235,0.348-0.471,0.695-0.701,1.049c6.188,8.631,16.158,13.75,26.778,13.751
	c0.165,0,0.33,0,0.495-0.006c0.412-0.006,0.818-0.018,1.225-0.035c6.288-0.322,12.351-2.449,17.462-6.125
	c-0.189-0.348-0.377-0.695-0.572-1.043C230.159,522.145,224.246,524.227,218.112,524.524z"/>
<path fill="#FFFFFF" d="M219.079,540.949c-0.412,0.036-0.825,0.06-1.237,0.077c-0.441,0.018-0.884,0.029-1.325,0.029
	c-14.139-0.017-26.575-9.35-30.541-22.921c-0.265,0.478-0.53,0.948-0.783,1.426c4.462,13.52,17.087,22.658,31.324,22.673
	c0.441,0,0.884-0.006,1.319-0.029c0.418-0.012,0.831-0.035,1.243-0.064c8.326-0.651,16.094-4.443,21.73-10.606
	c-0.123-0.437-0.266-0.866-0.406-1.302C234.958,536.441,227.309,540.286,219.079,540.949z"/>
<path fill="#CACACA" d="M592.794,43.24H15.237c-0.463-0.001-0.837-0.378-0.836-0.841c0.001-0.461,0.375-0.834,0.836-0.836h577.557
	c0.463,0.001,0.836,0.377,0.836,0.841C593.628,42.865,593.255,43.238,592.794,43.24z"/>
<path fill="#3F3D56" d="M573.708,18.703h-22.633c-0.926-0.003-1.674-0.757-1.67-1.683c0.004-0.921,0.748-1.667,1.67-1.67h22.633
	c0.926-0.003,1.68,0.744,1.684,1.67c0.002,0.926-0.746,1.679-1.672,1.683C573.716,18.703,573.712,18.703,573.708,18.703z"/>
<path fill="#3F3D56" d="M573.708,24.989h-22.633c-0.926-0.003-1.674-0.757-1.67-1.683c0.004-0.921,0.748-1.667,1.67-1.67h22.633
	c0.926-0.003,1.68,0.745,1.684,1.67c0.002,0.926-0.746,1.679-1.672,1.683C573.716,24.989,573.712,24.989,573.708,24.989z"/>
<path fill="#3F3D56" d="M573.708,31.276h-22.633c-0.926-0.003-1.674-0.757-1.67-1.683c0.004-0.921,0.748-1.667,1.67-1.67h22.633
	c0.926-0.003,1.68,0.745,1.684,1.67c0.002,0.926-0.746,1.679-1.672,1.683C573.716,31.276,573.712,31.276,573.708,31.276z"/>
<rect x="31.798" y="81.148" fill="#F0F0F0" width="529.279" height="280.42"/>
<path fill="#FFFFFF" d="M561.077,133.638v-2.75H458.048v-49.74h-2.75v49.74H352.269v-49.74h-2.75v49.74h-103.03v-49.74h-2.75v49.74
	H140.708v-49.74h-2.75v49.74H31.798v2.75h106.16v54.95H31.798v2.75h106.16v54.95H31.798v2.75h106.16v54.94H31.798v2.75h106.16v54.84
	h2.75v-54.84h103.031v54.84h2.75v-54.84h103.03v54.84h2.75v-54.84h103.029v54.84h2.75v-54.84h103.029v-2.75H458.048v-54.94h103.029
	v-2.75H458.048v-54.95h103.029v-2.75H458.048v-54.95L561.077,133.638z M243.739,303.979H140.708v-54.94h103.031V303.979z
	 M243.739,246.289H140.708v-54.95h103.031V246.289z M243.739,188.588H140.708v-54.95h103.031V188.588z M349.519,303.979h-103.03
	v-54.94h103.03V303.979z M349.519,246.289h-103.03v-54.95h103.03V246.289z M349.519,188.588h-103.03v-54.95h103.03V188.588z
	 M455.298,303.979H352.269v-54.94h103.029V303.979z M455.298,246.289H352.269v-54.95h103.029V246.289z M455.298,188.588H352.269
	v-54.95h103.029V188.588z"/>
<rect x="161.204" y="147.002" fill="#CACACA" width="35.409" height="34.28"/>
<rect x="487.204" y="258.002" fill="#CACACA" width="35.408" height="34.28"/>
<rect x="172.204" y="315.002" fill="#CACACA" width="35.409" height="34.28"/>
<rect x="182.669" y="140.642" fill="#6C63FF" width="35.41" height="34.28"/>
<polygon fill="#FFB6B6" points="384.528,283.139 426.548,245.702 438.944,251.844 388.548,304.702 "/>
<circle fill="#FFB6B6" cx="432.077" cy="248.568" r="10"/>
<polygon fill="#FFB6B6" points="345.198,564.919 335.255,564.919 330.524,526.568 345.198,526.569 "/>
<path fill="#2F2E41" d="M347.733,574.557l-32.059-0.002v-0.405c0-6.892,5.586-12.478,12.479-12.478l0,0h19.58V574.557z"/>
<polygon fill="#FFB6B6" points="309.198,564.919 299.255,564.919 294.525,526.568 309.198,526.569 "/>
<path fill="#2F2E41" d="M311.733,574.557l-32.059-0.002v-0.405c0-6.892,5.587-12.478,12.479-12.478l0,0h19.581V574.557z"/>
<path fill="#2F2E41" d="M353.548,345.702c0,0,25-2,17,42c-8,43.999-24.57,164.36-24.57,164.36l-15.023,2.065l-8.877-160.56
	l-6.715,160.56l-19.105-2.065l-18.708-172.36c0,0-6.007-13.859-0.004-23.43C283.548,346.702,353.548,345.702,353.548,345.702z"/>
<path fill="#3F3D56" d="M337.548,236.702l6.941-3.719c0,0,17.102-1.458,24.08,18.63l18.508,27.956l30-26l13,9l-37.809,45.124
	l-15.721,2.01l-34-44L337.548,236.702z"/>
<path fill="#2F2E41" d="M312.362,155.568c-28.518,0-36.5,31.327-36.5,49c0,17.673,16.342,15,36.5,15
	c8.652,0,16.596,0.488,22.852-0.347l3.008-7.347l2.422,6.088c5.135-1.887,8.219-5.722,8.219-13.394
	C348.862,186.896,341.862,155.568,312.362,155.568z"/>
<circle fill="#FFB6B6" cx="312.239" cy="194.978" r="24.561"/>
<path fill="#2F2E41" d="M283.862,192.568L283.862,192.568h9.714l4.287-12l0.855,12h4.645l2.498-7l0.5,7h34.502l0,0
	c0-14.359-11.641-26-26.002-26h-5C295.503,166.568,283.862,178.209,283.862,192.568z"/>
<rect x="412.669" y="210.642" fill="#6C63FF" width="35.408" height="34.28"/>
<path fill="#3F3D56" d="M361.319,336.653c-3.771,0.049-15.131-67.35-15.131-67.35l-1.699-36.32l-12.412-0.417v-0.816
	c0-3.414-2.766-6.181-6.18-6.181h-23.639c-3.258,0.001-5.955,2.535-6.16,5.788l-9.733-0.327l-16.856,53.554
	c0,0,15.532,49.76,8.036,71.689c0,0,73.038,6.271,87.02-7.649C364.565,348.623,365.091,336.604,361.319,336.653z"/>
<path fill="#3F3D56" d="M290.548,237.702l-4.183-6.672c0,0-13.611-3.365-19.215,5.654c-5.603,9.019-22.072,57.885-22.072,57.885
	l17,6l19.291-27.045L290.548,237.702z"/>
<rect x="297.669" y="272.642" fill="#6C63FF" width="35.408" height="34.281"/>
<path fill="#FFB6B6" d="M270.501,285.032l-12.319-1.303l0,0c-2.832,6.043-0.229,13.239,5.814,16.071
	c0.881,0.414,1.809,0.719,2.764,0.909l48.743,9.728l-5.084-15.658L270.501,285.032z"/>
<circle fill="#FFB6B6" cx="315.649" cy="300.618" r="10"/>
<path fill="#3F3D56" d="M303.167,310.922l-37.135-8.485c-5.473-1.266-9.885-5.302-11.632-10.641l-1.501-4.628l9.638-7.584
	l44.152,12.341L303.167,310.922z"/>
</svg>
