<?xml version="1.0" encoding="utf-8"?>
<!-- Generator: Adobe Illustrator 16.0.0, SVG Export Plug-In . SVG Version: 6.00 Build 0)  -->
<!DOCTYPE svg PUBLIC "-//W3C//DTD SVG 1.1//EN" "http://www.w3.org/Graphics/SVG/1.1/DTD/svg11.dtd">
<svg version="1.1" id="Capa_1" xmlns="http://www.w3.org/2000/svg" xmlns:xlink="http://www.w3.org/1999/xlink" x="0px" y="0px"
	 width="600px" height="600px" viewBox="0 0 600 600" enable-background="new 0 0 600 600" xml:space="preserve">
<rect fill="none" width="600" height="600"/>
<path fill="#504F60" d="M536.563,434.216c0,4.008-23.366,15.694-51.121,15.694s-49.382-11.687-49.382-15.694
	c0-4.01,22.496-2.719,50.278-2.719C514.122,431.497,536.563,430.199,536.563,434.216z"/>
<path opacity="0.2" enable-background="new    " d="M536.563,434.216c0,4.008-23.366,15.694-51.121,15.694
	s-49.382-11.687-49.382-15.694"/>
<path fill="#6C63FF" d="M257.047,360.659c4.505,0.577,9.179,0.943,13.493-0.455c0.68-0.212,1.427-0.68,1.359-1.359
	c-0.049-0.247-0.154-0.479-0.306-0.68c-1.626-2.439-2.993-5.043-4.077-7.767c-0.042-0.142-0.131-0.266-0.251-0.353
	c-0.141-0.052-0.294-0.052-0.435,0c-1.99,0.522-3.71,1.807-5.687,2.357c-1.008,0.276-2.06,0.354-3.098,0.231
	c-0.897-0.103-2.12-0.844-2.935-0.748C255.573,354.856,256.7,357.628,257.047,360.659z"/>
<path fill="#6C63FF" d="M342.242,353.137c2.97-2.038,6.048-4.178,7.8-7.324c0.126-0.188,0.198-0.406,0.211-0.632
	c-0.03-0.223-0.116-0.433-0.251-0.611c-1.671-2.655-3.82-4.975-6.34-6.842c-1.313,0.928-2.502,2.025-3.533,3.261
	c-0.747,0.788-2.813,2.039-2.833,3.241c0,0.68,0.789,1.467,1.155,2.038c0.496,0.733,0.965,1.481,1.413,2.242
	C340.122,348.884,342.48,352.988,342.242,353.137z"/>
<path fill="#514E7F" d="M274.706,369.757c0.053,0.699-0.139,1.396-0.544,1.97c-0.317,0.318-0.709,0.553-1.141,0.68
	c-6.299,2.256-13.589-0.558-19.874,1.664c-1.292,0.455-2.515,1.115-3.812,1.549c-1.547,0.466-3.143,0.748-4.756,0.844
	c-2.221,0.21-4.457,0.346-6.686,0.407c-1.693,0.119-3.395-0.029-5.041-0.441c-1.666-0.427-3.071-1.541-3.867-3.065
	c-0.341-0.675-0.409-1.456-0.19-2.181c0.098-0.248,0.238-0.478,0.414-0.68c0.426-0.478,0.926-0.884,1.482-1.201l2.316-1.496
	c1.086-0.768,2.267-1.394,3.513-1.861c0.917-0.298,1.888-0.428,2.819-0.68c3.254-0.95,5.741-3.532,8.052-6.013l3.152-3.363
	c0.295-0.37,0.668-0.669,1.094-0.876c0.437-0.146,0.902-0.19,1.359-0.13c3.062,0.219,6.019,1.21,8.595,2.881
	c0.658,0.494,1.37,0.913,2.12,1.25c1.847,0.721,4.219,0.177,5.924-0.733c0.81-0.436,0.633-0.68,0.973-1.453
	c0.339-0.775,1.168-1.271,1.888-0.564c0.218,0.244,0.372,0.538,0.448,0.855c0.68,2.242,0.422,4.654,0.422,7.005
	c-0.02,0.368,0.026,0.736,0.136,1.088c0.173,0.354,0.38,0.69,0.618,1.006c0.049,0.083,0.092,0.169,0.129,0.258
	C274.667,367.516,274.823,368.642,274.706,369.757z"/>
<path fill="#464353" d="M274.706,369.757c0.053,0.699-0.139,1.396-0.544,1.97c-0.317,0.318-0.709,0.553-1.141,0.68
	c-6.299,2.256-13.589-0.558-19.874,1.664c-1.292,0.455-2.515,1.115-3.812,1.549c-1.547,0.466-3.143,0.748-4.756,0.844
	c-2.221,0.21-4.457,0.346-6.686,0.407c-1.693,0.119-3.395-0.029-5.041-0.441c-1.666-0.427-3.071-1.541-3.867-3.065
	c-0.341-0.675-0.409-1.456-0.19-2.181c0.098-0.248,0.238-0.478,0.414-0.68c0.367,0.769,0.632,1.787,0.864,2.154
	c0.631,1.1,1.706,1.875,2.948,2.126c0.92,0.058,1.842-0.061,2.718-0.346c5.708-1.414,11.775-1.433,17.258-3.573
	c1.881-0.74,3.675-1.727,5.652-2.176c1.977-0.447,4.077-0.325,6.115-0.495c3.221-0.259,6.339-1.229,9.513-1.739
	C274.688,367.503,274.834,368.637,274.706,369.757z"/>
<path fill="#514E7F" d="M356.667,352.723c-0.299,2.392-1.813,4.45-3.479,6.196c-1.664,1.746-3.547,3.315-4.872,5.327
	c-1.631,2.493-2.363,5.585-4.484,7.691c-0.813,0.766-1.727,1.417-2.718,1.936c-1.108,0.654-2.281,1.194-3.498,1.611
	c-3.167,1.012-6.577,0.781-9.887,0.536c-1.074-0.011-2.138-0.215-3.139-0.604c-0.456-0.231-0.893-0.5-1.305-0.803
	c-0.83-0.51-1.527-1.208-2.039-2.037c-0.25-0.451-0.32-0.98-0.196-1.481c0.189-0.552,0.514-1.048,0.944-1.441
	c0.745-0.773,1.544-1.493,2.392-2.152c1.163-0.751,2.212-1.667,3.112-2.719c0.553-0.83,0.959-1.749,1.203-2.718
	c0.48-1.695,0.774-3.438,0.876-5.197c-0.004-1.169,0.117-2.336,0.359-3.479c0.503-1.794,1.834-3.397,1.686-5.252
	c-0.061-0.266-0.037-0.544,0.068-0.796c0.158-0.195,0.379-0.333,0.625-0.387c1.037-0.414,2.133-0.668,3.247-0.754
	c1.132-0.078,2.239,0.355,3.018,1.182c0.461,0.558,0.768,1.359,1.447,1.577c0.336,0.091,0.689,0.104,1.032,0.04
	c1.671-0.17,3.438-0.38,4.756-1.461c1.232-1.104,1.946-2.674,1.971-4.328c0-0.619-0.279-1.263,0.68-1.358
	c0.72-0.096,1.29,0.679,1.657,1.155c1.324,1.773,2.684,3.628,3.18,5.789c0.192-0.075,0.398-0.114,0.605-0.116
	c0.859-0.008,1.669,0.406,2.167,1.108C356.617,350.664,356.826,351.705,356.667,352.723z"/>
<path fill="#464353" d="M356.667,352.723c-0.299,2.392-1.813,4.45-3.479,6.196c-1.664,1.746-3.547,3.315-4.872,5.327
	c-1.631,2.493-2.363,5.585-4.484,7.691c-0.813,0.766-1.727,1.417-2.718,1.936c-1.108,0.654-2.281,1.194-3.498,1.611
	c-3.167,1.012-6.577,0.781-9.887,0.536c-1.074-0.011-2.138-0.215-3.139-0.604c-0.456-0.231-0.893-0.5-1.305-0.803
	c-0.83-0.51-1.527-1.208-2.039-2.037c0.638-0.307,1.333-0.473,2.039-0.489c1.467,0.081,2.541,1.468,3.947,1.896
	c2.005,0.604,4.003-0.809,6.034-1.29c1.324-0.313,2.718-0.232,4.028-0.68c1.093-0.423,2.103-1.035,2.983-1.809
	c1.206-0.862,2.28-1.896,3.186-3.07c0.754-1.174,1.381-2.425,1.869-3.73c1.073-2.503,2.336-4.919,3.778-7.229
	c0.213-0.366,0.471-0.704,0.768-1.006c0.318-0.293,0.68-0.496,1.039-0.755c1.358-1.025,1.923-2.717,2.398-4.375
	c0.129-0.505,0.309-0.994,0.537-1.461c0.859-0.009,1.669,0.406,2.167,1.107C356.606,350.582,356.837,351.665,356.667,352.723z"/>
<path fill="#A1616A" d="M214.194,140.885c1.691,1.268,3.083,2.891,4.077,4.756c0.952,1.861,6.434,16.307,6.115,18.406
	c1.787-1.8,8.833-2.092,10.64-3.893c0.754-0.754,4.824-4.518,5.436-5.395c0.611-0.876,5.15-2.718,5.646-3.642
	c1.855-3.323-13.153-15.913-11.231-19.194c0.107-0.151,0.162-0.332,0.157-0.517c-0.044-0.155-0.131-0.294-0.251-0.401
	c-1.229-1.257-2.861-2.038-4.342-2.969c-1.481-0.931-2.908-2.229-3.309-3.94c-1.413,0.65-2.709,1.527-3.839,2.595
	c-2.753,2.36-5.46,4.767-8.12,7.223c-1.039,0.965-3.05,2.249-3.532,3.628C211.069,139.024,213.203,140.077,214.194,140.885z"/>
<path fill="#514E7F" d="M238.491,135.538c-2.302,1.548-4.455,3.309-6.428,5.259c-1.861,1.841-3.627,3.975-4.076,6.55
	c-0.19,1.012-0.164,2.038-0.319,3.064c-0.68,4.45-4.525,7.712-6.224,11.877c-0.492,1.286-0.854,2.617-1.08,3.975
	c-0.477,2.573-0.739,5.182-0.782,7.8c-0.041,2.534,2.447,4.28,3.356,6.645c0.911,2.364,1.155,4.796,1.617,7.222
	c0.87,4.58,2.466,8.996,4.077,13.385c3.35,9.254,14.208,34.835,17.557,44.096c10.267-2.575,37.594-8.493,46.685-13.922
	c3.03-1.807-21.029-22.197-17.788-23.604c0.66-0.103,1.111-0.722,1.009-1.381c-0.018-0.113-0.051-0.222-0.099-0.324
	c-3.241-14.173-13.379-25.819-17.979-39.619c-1.596-4.79-4.464-8.88-6.637-13.433c-1.971-4.124-3.024-8.683-5.382-12.604
	c-0.445-0.808-1.026-1.532-1.719-2.141c-0.589-0.45-1.224-0.835-1.896-1.148C241.04,136.584,239.789,136.197,238.491,135.538z"/>
<circle fill="#A1616A" cx="214.738" cy="123.206" r="16.069"/>
<path fill="#464353" d="M231.086,130.755c1.639-1.512,4.041-1.858,6.04-0.87c1.087,0.564,2.038,1.706,1.793,2.901l7.97,0.123
	c1.269-0.035,2.537,0.081,3.777,0.346c1.25,0.272,2.364,0.971,3.153,1.978c0.095,0.129,0.204,0.285,0.367,0.305
	c0.132,0.002,0.262-0.041,0.367-0.122c1.226-0.615,2.607-0.852,3.968-0.68c4.308,0.278,8.29,2.432,11.666,5.123
	c0.609,0.418,1.082,1.007,1.359,1.692c0.278,0.904-0.055,2.039,0.679,2.684c0,7.474,2.568,14.458,4.281,21.742
	c0.306,1.297,1.549,2.445,2.412,3.465c1.066,1.13,1.937,2.43,2.575,3.846c1.455,3.778-0.55,8.222,0.864,12.013
	c0.598,1.604,1.752,2.922,2.717,4.314c1.271,1.608,2.076,3.536,2.324,5.571c0.062,0.911-0.054,1.828,0,2.718
	c0.091,1.225,0.319,2.435,0.68,3.608c0.58,2.192,1.186,4.383,1.821,6.571c1.033,3.532,2.378,7.345,5.544,9.227
	c-7.644,1.297-15.702,2.568-22.985-0.089c-1.016-0.347-1.98-0.828-2.867-1.434c-2.629-1.875-3.9-5.082-5.035-8.112
	c-1.264-3.397-2.548-6.856-2.806-10.47c0.002-1.149-0.16-2.293-0.482-3.397c-0.74-1.971-2.718-3.16-4.512-4.253
	c-2.025-1.11-3.86-2.537-5.436-4.227c-1.579-1.72-2.376-4.017-2.201-6.346c0.136-1.121,0.578-2.202,0.618-3.33
	c0.041-1.127-0.462-2.418-1.542-2.717c-5.565-1.686-8.221-8.276-9.458-13.956c-0.533-2.936-0.773-5.917-0.713-8.901l-0.075-5.795
	c-1.552-1.412-2.456-3.399-2.5-5.497c0.074-0.606,0.063-1.218-0.035-1.821c-0.269-0.736-0.706-1.399-1.277-1.936
	C232.908,133.768,231.879,132.326,231.086,130.755z"/>
<path fill="#464353" d="M213.971,149.127c-0.183,1.794,0.224,3.635-0.177,5.395c-0.157,0.679-0.428,1.359-0.625,1.991
	c-0.603,2.533-0.342,5.194,0.74,7.562c1.081,2.345,2.375,4.585,3.866,6.693c0.504,0.72,0.919,1.498,1.236,2.317
	c0.257,0.86,0.417,1.747,0.476,2.643c0.394,3.598,1.025,7.167,1.89,10.681c0.76,3.044,9.403,29.066,11.414,31.479
	c0.365,0.534,0.918,0.911,1.55,1.054c0.454,0.017,0.907-0.076,1.317-0.271l4.077-1.563c0.347-0.106,0.668-0.282,0.944-0.517
	c0.382-0.446,0.59-1.016,0.584-1.603c0.292-3.316-8.371-29.522-9.471-32.655c-3.33-9.458-7.76-18.576-9.927-28.367
	c-0.604-2.718-0.924-6.903-2.915-9.071c-0.822-0.897-0.543-0.516-1.528-0.047c-0.498,0.216-0.979,0.468-1.441,0.754
	C214.813,146.413,214.075,147.708,213.971,149.127z"/>
<path fill="#464353" d="M292.385,208.008"/>
<path fill="#6C63FF" d="M226.343,167.071c1.095,5.782,2.223,11.55,3.343,17.333l15.954-4.179c0.128-1.671-0.761-3.221-1.359-4.757
	c-1.455-3.648-1.488-7.711-2.664-11.462c-0.89-2.854-2.44-5.476-3.275-8.35c-0.482-1.672-0.727-3.397-1.203-5.089
	c-0.509-1.661-1.137-3.284-1.875-4.858c-0.895-2.281-2.064-4.447-3.479-6.448c-2.038,0.761-4.212,1.644-5.375,3.486
	c-0.596,1.037-0.936,2.202-0.992,3.397c-0.278,3.581,1.019,7.182,0.591,10.742C225.569,160.277,225.682,163.717,226.343,167.071z"/>
<path fill="#464353" d="M245.904,243.983c0.897,3.397-0.4,6.972-1.461,10.335c-1.596,5.065-2.684,10.278-3.247,15.56
	c-0.07,1.344-0.34,2.67-0.802,3.935c-0.502,1.135-1.359,2.092-1.943,3.172c-1.604,2.841-1.563,6.306-1.216,9.554
	c0.231,2.14,0.577,4.273,1.005,6.38c0.523,2.575,1.169,5.266,0.414,7.779c1.265-0.278,2.12,1.359,2.039,2.644
	c-0.082,1.283-0.496,2.717,0.122,3.824c1.563,0.571,1.577,2.719,1.529,4.384c0.026,2.886,0.391,5.76,1.087,8.561
	c2.364,11.369,4.874,22.706,7.528,34.014c5.741,1.779,12.447,3.634,17.924,1.168c1.019-0.455,2.039-1.183,2.269-2.283
	c0.06-0.593-0.015-1.192-0.217-1.753l-2.596-9.444c-0.631-2.283-1.263-4.641-0.93-6.984c0.251-1.746,1.012-3.628,0.156-5.171
	c-0.292-0.53-0.754-0.944-1.094-1.446c-1.359-1.992-0.645-4.655-0.536-7.067c0.042-0.541,0.005-1.086-0.108-1.617
	c-0.187-0.619-0.447-1.215-0.775-1.773c-2.145-4.164-3.175-8.813-2.989-13.493c0.081-0.598-0.001-1.205-0.239-1.76
	c-0.165-0.229-0.313-0.47-0.441-0.721c-0.102-0.436-0.051-0.894,0.143-1.297c-0.779-0.591-1.481-1.276-2.093-2.039
	c1.374-0.854,1.795-2.659,0.94-4.032c-0.123-0.199-0.27-0.384-0.438-0.547c0.828-0.166,1.364-0.973,1.196-1.801
	c-0.063-0.319-0.229-0.608-0.47-0.828c-0.333-0.231-0.774-0.333-1.012-0.68c-0.366-0.503-0.068-1.202,0.231-1.739l1.583-2.86
	c1.182-2.127,1.447-4.756,2.718-6.795c1.821-2.97,3.009-6.278,4.185-9.553l4.573-12.617l3.078,2.67
	c1.025,0.783,1.884,1.762,2.527,2.88c0.438,1.106,0.715,2.269,0.822,3.452c1.128,6.849,5.436,12.788,7.032,19.535
	c0.354,1.5,0.591,3.077,1.454,4.361c0.309,0.394,0.586,0.812,0.829,1.25c0.226,0.668,0.342,1.368,0.347,2.072
	c0.289,2.793,1.776,5.322,4.077,6.931c1.516,1.039,3.397,1.752,4.22,3.396c0.165,0.509,0.393,0.996,0.679,1.448
	c0.734,0.883,2.317,0.984,2.63,2.092c0.176,0.618-0.15,1.359,0.196,1.902c0.197,0.252,0.457,0.446,0.755,0.564l4.423,2.208
	c4.946,2.474,7.474,8.153,11.123,12.291c1.26,1.348,2.375,2.824,3.329,4.403c1.576,2.818,2.303,6.358,4.967,8.153
	c0.716,0.37,1.367,0.854,1.93,1.434c0.836,1.101,0.529,2.643,0.604,4.029c0.074,1.386,1.135,3.036,2.453,2.616
	c-0.462,1.678-0.462,3.45,0,5.129c5.786-0.298,11.305-2.532,15.668-6.346c1.29-1.129,2.534-2.568,2.547-4.28
	c0.02-0.296-0.046-0.591-0.189-0.85c-0.262-0.334-0.605-0.595-0.998-0.754c-4.139-2.242-5.383-7.439-7.475-11.66
	c-1.828-3.723-4.532-6.93-6.795-10.389c-4.919-7.439-8.276-16.442-15.716-21.354c-1.637-1.08-3.54-2.039-4.362-3.825
	c-0.455-0.999-0.509-2.141-0.869-3.173c-0.359-1.033-1.223-2.038-2.323-2.038c0.611-1.495,0.489-3.316,0.529-4.933
	c0.042-0.718-0.04-1.438-0.244-2.127c-0.282-0.742-0.649-1.448-1.094-2.106c-1.941-3.286-2.911-7.056-2.8-10.871
	c0.055-1.964,0.4-3.988-0.19-5.864c-0.298-0.944-0.822-1.807-1.182-2.717c-0.543-1.65-0.829-3.374-0.85-5.11l-0.407-6.528
	c-0.062-2.176-0.344-4.338-0.843-6.456c-1.358-5.067-2.717-26.301-7.372-28.692c-4.654-2.391-12.651,13.948-17.89,14.269
	c-2.317,0.096-4.608,0.539-6.794,1.311c-3.485,1.305-6.407,3.737-9.254,6.116l-9.634,8.092
	C249.838,241.199,248.153,242.802,245.904,243.983z"/>
<path fill="#464353" d="M199.662,105.364c2.119-2.895,5.761-4.43,9.349-4.559c3.587-0.13,7.12,0.998,10.334,2.595
	c0.949,0.539,1.962,0.955,3.017,1.236c1.698,0.347,3.588-0.116,5.123,0.679c2.039,1.08,2.433,3.833,2.256,6.115
	c-0.176,2.283-0.604,4.817,0.612,6.794c0.431,0.564,0.824,1.157,1.175,1.774c0.523,1.174,0.217,2.534-0.095,3.777
	c-0.795-0.68-1.243-1.706-1.95-2.494c-0.707-0.788-1.936-1.318-2.813-0.727s-0.863,1.665-0.911,2.629
	c-0.047,0.965-0.292,2.12-1.202,2.432c-0.778,0.177-1.586-0.138-2.038-0.795c-1.556-1.902-0.931-4.939-2.473-6.855
	c-0.876-1.087-2.337-1.617-3.146-2.758c-0.638-0.897-0.801-2.039-1.359-3.003c-0.556-0.964-1.854-1.671-2.718-1.005
	c-0.294,0.281-0.54,0.61-0.727,0.971c-1.108,1.587-3.16,2.205-4.96,1.495c-0.668-0.41-1.391-0.724-2.147-0.931
	c-1.01-0.05-1.96,0.476-2.453,1.359c-0.488,0.864-0.723,1.848-0.679,2.84c0,1.359,0.245,2.806-0.53,3.893
	c-0.294,0.41-0.663,0.76-1.087,1.033c-1.135,0.727-2.718,1.217-3.764,0.388c-0.721-0.672-1.04-1.671-0.842-2.636
	c0.203-0.946,0.471-1.876,0.802-2.786c0.598-2.106-0.184-4.478,0.468-6.461C197.586,108.578,198.515,106.895,199.662,105.364z"/>
<path fill="#6C63FF" d="M208.27,153.299c-0.102,0.495-0.05,1.01,0.149,1.474c0.202,0.316,0.477,0.58,0.802,0.768
	c2.285,1.424,4.883,2.266,7.569,2.453c0.365,0.006,0.724,0.1,1.046,0.271c0.638,0.421,0.679,1.359,0.441,2.106
	c-0.317,0.705-0.481,1.469-0.482,2.242c0.197,1.42,1.883,2.038,3.302,2.249c1.991,0.251,4.172,0.122,5.748-1.121
	c1.068-0.974,1.882-2.194,2.372-3.553c3.899-8.962,5.266-18.868,9.213-27.804c0.299-0.583,0.499-1.212,0.591-1.861
	c0.085-0.662-0.196-1.317-0.733-1.712c-0.734-0.455-1.875-0.197-2.372-0.911c-0.245-0.36-0.217-0.849-0.435-1.229
	c-0.456-0.809-1.651-0.68-2.466-1.148c-0.639-0.34-1.081-1.04-1.794-1.175c-0.71-0.041-1.397,0.257-1.854,0.801
	c-2.317,2.161-3.534,5.225-4.825,8.12c-1.971,4.437-4.279,8.716-6.902,12.801c0.306-0.476-1.468-4.077-2.161-4.233
	c-1.217-0.244-2.773,1.889-3.432,2.684C209.979,147.028,208.669,150.073,208.27,153.299z"/>
<path opacity="0.1" enable-background="new    " d="M232.955,126.155c-0.989,0.017-1.917,0.482-2.521,1.264
	c-0.727,0.944-0.87,2.195-1.054,3.397c-0.618,3.81-1.978,7.462-4.001,10.749"/>
<path opacity="0.1" enable-background="new    " d="M236.419,128.866c-1.371,0.031-2.624,0.782-3.295,1.977
	c-0.45,1.069-0.729,2.201-0.829,3.356c-0.583,2.561-1.706,4.968-3.295,7.06"/>
<path fill="#33323D" d="M397.896,261.697v-8.438c-0.005-12.936-10.492-23.42-23.429-23.42H41.208
	c-12.937,0-23.424,10.484-23.428,23.42v15.559L397.896,261.697z"/>
<path fill="#8DD070" d="M133.918,219.946c0,0-0.951,59.017,9.512,78.435s14.948,103.894,14.948,103.894
	s109.689,11.347,186.127-13.589c76.438-24.936,239.082-35.134,239.082-35.134L556.18,168.817c0,0-135.406-8.683-212.436,28.055
	C266.715,233.609,133.918,219.946,133.918,219.946z"/>
<path opacity="0.1" enable-background="new    " d="M133.918,219.946c0,0-0.951,59.017,9.512,78.435s14.948,103.894,14.948,103.894
	s109.689,11.347,186.127-13.589c76.438-24.936,239.082-35.134,239.082-35.134L556.18,168.817c0,0-135.406-8.683-212.436,28.055
	C266.715,233.609,133.918,219.946,133.918,219.946z"/>
<path fill="#8DD070" d="M158.195,241.505c0,0-3.432,48.695,5.177,64.254c8.609,15.561,9.009,85.02,9.009,85.02
	s98.717,4.579,168.937-19.324c70.221-23.902,217.782-39.406,217.782-39.406l-16.769-151.075c0,0-122.096-1.257-193.355,32.389
	C277.716,247.008,158.195,241.505,158.195,241.505z"/>
<ellipse transform="matrix(-0.1236 -0.9923 0.9923 -0.1236 96.227 663.482)" opacity="0.1" enable-background="new    " cx="341.098" cy="289.249" rx="54.967" ry="25.628"/>
<path opacity="0.2" enable-background="new    " d="M481.943,78.825c0,0-131.548,33.293-193.581,91.895
	C226.33,229.322,95.74,257.071,95.74,257.071s17.204,56.453,33.116,71.728s46.094,94.307,46.094,94.307
	s107.875-22.869,172.965-70.077c65.092-47.208,216.791-106.829,216.791-106.829L481.943,78.825z"/>
<path fill="#8DD070" d="M93.763,248.618c0,0,17.197,56.461,33.096,71.736c15.899,15.273,46.094,94.3,46.094,94.3
	s107.889-22.864,172.987-70.071c65.097-47.208,216.782-106.81,216.782-106.81L479.96,70.379c0,0-131.541,33.293-193.575,91.895
	C224.352,220.876,93.763,248.618,93.763,248.618z"/>
<path opacity="0.1" enable-background="new    " d="M93.763,248.618c0,0,17.197,56.461,33.096,71.736
	c15.899,15.273,46.094,94.3,46.094,94.3s107.889-22.864,172.987-70.071c65.097-47.208,216.782-106.81,216.782-106.81L479.96,70.379
	c0,0-131.541,33.293-193.575,91.895C224.352,220.876,93.763,248.618,93.763,248.618z"/>
<path fill="#8DD070" d="M123.461,261.69c0,0,11.68,47.405,24.65,59.566c12.971,12.163,34.652,78.137,34.652,78.137
	s95.353-25.942,154.853-70.242c59.498-44.299,195.196-104.272,195.196-104.272L470.501,86.19c0,0-116.586,36.262-174.087,90.155
	C238.913,230.239,123.461,261.69,123.461,261.69z"/>
<ellipse transform="matrix(-0.4221 -0.9065 0.9065 -0.4221 216.4665 639.991)" opacity="0.1" enable-background="new    " cx="312.211" cy="251.003" rx="54.967" ry="25.629"/>
<path opacity="0.1" enable-background="new    " d="M406.892,269.979v234.408c0,11.194-9.074,20.269-20.268,20.269
	c-0.003,0-0.005,0-0.008,0H38.063c-11.191-0.004-20.261-9.077-20.261-20.269V246.349c9.988,3.71,9.988,3.71,20.261,3.397h348.554
	C397.798,249.746,406.869,258.799,406.892,269.979z"/>
<path fill="#504F60" d="M406.892,272.963V507.37c-0.003,11.195-9.08,20.269-20.275,20.269H38.063
	c-11.191-0.004-20.261-9.076-20.261-20.269V249.324c9.988,3.703,9.988,3.703,20.261,3.398h348.554
	C397.801,252.723,406.873,261.778,406.892,272.963z"/>
<path opacity="0.1" enable-background="new    " d="M405.899,359.626v74.963h-72.7c-20.7-0.279-37.256-17.285-36.978-37.986
	c0.273-20.307,16.669-36.704,36.978-36.977H405.899z"/>
<path fill="#33323D" d="M406.892,357.628v74.977h-72.7c-20.7-0.279-37.256-17.285-36.978-37.985
	c0.273-20.308,16.669-36.704,36.978-36.978L406.892,357.628z"/>
<circle opacity="0.1" enable-background="new    " cx="337.677" cy="397.11" r="14.615"/>
<circle fill="#6C63FF" cx="338.669" cy="395.126" r="14.615"/>
<path fill="#A1616A" d="M293.092,208.605c-1.325,1.178-2.55,2.465-3.663,3.846c-1.12,1.4-1.715,3.147-1.685,4.939
	c0.006,0.521,0.172,1.025,0.476,1.448c0.318,0.413,0.864,0.58,1.359,0.414c0.272-0.14,0.506-0.346,0.68-0.598
	c0.718-0.863,1.479-1.689,2.282-2.474c0.292-0.292,0.68-0.598,1.073-0.489c0.177,0.063,0.336,0.168,0.463,0.306
	c0.457,0.396,0.79,0.914,0.958,1.495c0.238,1.039-0.367,2.078-1.053,2.895c-0.686,0.814-1.495,1.596-1.773,2.622
	c-0.105,0.271-0.105,0.572,0,0.842c0.132,0.196,0.315,0.352,0.53,0.449c1.97,1.085,4.319,1.239,6.414,0.422
	c1.359-0.551,2.568-1.495,3.968-1.984c0.605-0.166,1.193-0.394,1.753-0.68c0.809-0.538,1.369-1.378,1.557-2.331
	c0.176-0.942,0.21-1.906,0.102-2.859c-0.17-3.692-0.96-7.328-2.338-10.756c-0.079-0.222-0.216-0.418-0.394-0.57
	c-0.204-0.125-0.44-0.189-0.68-0.184c-1.739-0.184-4.593-1.074-6.271-0.429c-0.587,0.322-1.094,0.772-1.482,1.318
	C295.055,206.595,293.092,208.15,293.092,208.605z"/>
<path fill="#464353" d="M292.541,207.069c0-1.657-2.039-5.659,1.203-5.924c0-1.772-2.507-2.874-2.039-4.755
	c0.149-0.625,0.68-1.135,0.74-1.773c0.204-1.814-3.07-2.799-2.527-4.539c0.204-0.679,0.923-1.074,1.08-1.746
	c0.367-1.569-2.439-2.27-2.494-3.879c0-0.544,0.306-1.054,0.279-1.597c0-0.679-0.591-1.195-0.918-1.787
	c-0.849-1.515-0.434-3.859-1.984-4.641c1.027,0.088,1.359-1.434,0.938-2.364c-0.421-0.931-1.284-1.739-1.291-2.772
	c0.05-0.375,0.05-0.753,0-1.128c-0.286-0.992-1.91-1.073-2.181-2.039c-0.035-0.37-0.046-0.742-0.034-1.114
	c-0.109-0.768-0.897-1.257-1.638-1.475c-0.77-0.13-1.51-0.395-2.188-0.781c-0.475-0.36-1.025-0.958-1.535-0.68
	c-0.19,0.116-0.286,0.333-0.428,0.496c-0.612,0.713-1.78,0.401-2.548-0.122c-2.269-1.542-3.397-4.308-3.879-7.005
	c-0.483-2.697-0.469-5.482-1.074-8.153c-0.185-0.833-0.43-1.65-0.733-2.446c-0.258-0.68-1.087-1.746-1.142-2.432
	c-0.122-1.563,3.112-0.496,4.341-0.34c1.194,0.117,2.375,0.344,3.527,0.679c1.229,0.464,2.434,0.993,3.607,1.583
	c4.905,2.167,10.831,2.433,14.771,6.074c1.298,1.196,2.391,2.765,4.077,3.309c0.772,0.148,1.535,0.345,2.283,0.591
	c1.869,0.876,2.16,3.356,3.179,5.15c0.32,0.474,0.6,0.974,0.836,1.495c0.196,0.614,0.288,1.257,0.271,1.902l0.143,4.708
	c0.231,7.888,0.462,15.797-0.38,23.638c-0.272,2.589-0.68,5.252,0.088,7.739c0.204,0.68,0.489,1.318,0.68,2.005
	c0.168,0.805,0.254,1.624,0.258,2.445l0.109,3.051c0.038,0.237-0.017,0.479-0.15,0.68c-0.229,0.187-0.532,0.259-0.821,0.197
	c-4.247-0.381-8.541-2.771-12.55-1.325"/>
<ellipse fill="#504F60" cx="486.332" cy="434.214" rx="50.252" ry="7.263"/>
<linearGradient id="SVGID_1_" gradientUnits="userSpaceOnUse" x1="541.8945" y1="-53.729" x2="541.8945" y2="278.2837" gradientTransform="matrix(1 0 0 -1 -90.46 387.7695)">
	<stop  offset="0" style="stop-color:#808080;stop-opacity:0.25"/>
	<stop  offset="0.54" style="stop-color:#808080;stop-opacity:0.12"/>
	<stop  offset="1" style="stop-color:#808080;stop-opacity:0.1"/>
</linearGradient>
<path fill="url(#SVGID_1_)" d="M529.565,434.568c-0.883-3.784-1.434-7.107-1.434-7.107s0.203-4.117-1.645-7.208v-1.033l0,0v-7.61
	c0.526-1.381,1.17-2.716,1.923-3.988c1.359-2.392,0-11.156,0-11.156s-5.075-12.358-3.846-20.199
	c1.23-7.841-10.423-34.815-10.423-34.815c0.072-2.602,0.438-5.187,1.094-7.705c0.125-0.529,0.176-1.073,0.15-1.617
	c0-0.066,0-0.129,0-0.196c0-0.068,0,0.04,0,0.062c-0.177-5.171-4.268-14.859-4.268-14.859l0.551-18.468
	c0,0,2.609-10.871-1.645-25.514c-1.487-5.103-2.439-9.186-3.044-12.338c-0.067-0.354-0.137-0.68-0.189-1.026
	c8.757-1.359,15.449-2.445,15.449-2.445s-5.082-21.261-8.513-24.984c-3.432-3.723-6.177-15.416-6.177-15.416
	s-1.786-15.009,1.102-19.398s3.294-11.958,3.294-11.958s6.585-4.756,7.413-6.91c0.829-2.154,2.195-6.91,2.195-9.431
	c0-2.521-0.822-4.756-0.551-6.115c0.271-1.359-1.922-6.379-0.822-8.771c0.284-0.735,0.432-1.516,0.435-2.303
	c0.003-0.022,0.003-0.046,0-0.068l0,0c0.011-2.093-0.183-4.182-0.577-6.237c-1.904-1.608-4.127-2.796-6.522-3.486l-0.143-0.571
	L513,140.199c-0.208-0.137-0.424-0.264-0.645-0.38v-0.544l-0.062-2.161l1.033-4.851c2.037-8.439-9.234-9.696-9.234-9.696
	c-0.683-1.295-1.82-2.292-3.193-2.799c-2.263-0.795-0.373,12.692,0.68,13.588c0.795,0.68,3.254,4.878,4.443,6.958l0,0l0.19,0.34
	c-0.187,0.167-0.359,0.349-0.518,0.543l0.43,2.929l0.067,0.449c-0.747,0.928-1.354,1.959-1.801,3.064c0,0,2.038,2.256,1.651,4.756
	c-0.388,2.501,0.631,5.673,0.68,5.843c-0.123-0.143-1.57-1.705-3.018-1.325c-1.446,0.38-5.489,1.597-5.489,1.597
	s-3.017,0.53-2.718,1.196c0.299,0.666-2.039,3.587-2.039,3.587l-8.111-7.691c-0.082-0.231-0.17-0.462-0.239-0.68
	c-0.331-1.109-0.558-2.246-0.679-3.397c0.884-0.21,1.752-0.484,2.596-0.822c0.853-0.293,1.621-0.787,2.241-1.44
	c0.822-0.972,0.979-2.29,1.312-3.5c0.64-2.364,2.039-4.464,3.011-6.713c1.646-3.8,2.176-7.99,1.528-12.08
	c-0.124-1.261-0.552-2.473-1.243-3.533c-1.325-1.821-3.73-2.562-5.476-4.016c-1.747-1.454-2.875-3.676-4.913-4.756
	c-1.841-0.985-4.076-0.87-6.156-0.53c-4.06,0.67-7.961,2.089-11.503,4.186c-1.182,0.68-2.487,1.515-3.845,1.264
	c-1.169-0.211-2.039-1.141-2.772-2.038c0.008-0.038,0.02-0.074,0.033-0.109c-0.032-0.033-0.063-0.069-0.088-0.108
	c-0.859,1.908-1.291,3.982-1.264,6.074c0,0.326,0,0.68,0.041,0.972v0.34c0,0.095,0,0.19,0,0.278l0,0
	c0,0.145-0.021,0.289-0.062,0.428c-0.171,0.416-0.431,0.789-0.761,1.094c-0.25,0.283-0.478,0.585-0.68,0.903
	c0-0.109,0.068-0.217,0.109-0.333c-0.52,0.756-0.811,1.645-0.844,2.562c-0.037,0.667,0.182,1.324,0.612,1.835
	c0.406,0.395,0.851,0.75,1.325,1.06c-0.161,0.897-0.244,1.806-0.244,2.718c0.03,5.495,2.932,10.574,7.649,13.392
	c0.096,0.224,0.184,0.455,0.271,0.679c1.041,2.718,1.821,5.911,1.475,8.833c0,0.21-0.061,0.428-0.094,0.639
	c-0.035,0.21-0.205,0.224-0.294,0.339l0,0c0,0-13.405,0.136-16.557-2.717c-3.153-2.854-7.964,6.978-7.964,6.978
	s-4.804,0.931-5.769,0s-6.583-0.129-6.583-0.129c-2.304-2.047-5.298-3.141-8.378-3.058c-1.866-1.418-3.926-2.562-6.115-3.397l0,0
	l-0.149-0.054l0,0c-0.967-0.353-2-0.482-3.023-0.38c0,0-6.591-5.436-8.514-8.371c-1.923-2.935-11.075-13.772-11.115-13.82v-0.523
	l-0.103-1.576c-0.271,0.042-0.546,0.065-0.821,0.067c-0.048-0.156-0.115-0.339-0.184-0.55c-0.528-1.538-1.178-3.031-1.943-4.464
	c0,0,0-1.991,0.577-2.494c0.577-0.502-0.237-7.806-0.237-7.806s-5.938-13.882-11.259-3.52c0,0-10.056,6.706-1.616,14.52
	c0,0,3.396,1.63,3.845,2.921c0.313,0.836,1.454,3.18,2.222,4.756l0.347,0.68l-0.096,0.082l0.123,1.304l0.055,0.503
	c-1.59,0.904-2.671,1.801-2.405,2.473c0.468,1.151,0.79,2.356,0.958,3.587c0,0,11.673,14.622,13.182,20.866
	c0,0,31.302,18.603,41.595,19.928l-1.821,9.274c-0.265,2.517-0.401,5.045-0.406,7.576c0.135,1.991-1.238,11.027-1.238,11.027
	s-1.786,13.291-3.295,15.152c-1.508,1.862-1.235,9.832-1.235,9.832c-0.357,3.814-1.039,7.593-2.039,11.292
	c-1.509,5.048-0.414,11.299-0.414,11.299s-5.212,11.958,7.276,3.853c0,0,6.114-0.381,13.194-0.625c0,0.23,0,0.469,0,0.68
	c0,0.91,0,1.896-0.047,2.929c-0.096,6.849-0.136,16.307,0.177,23.427c0.55,12.624,4.396,37.607,4.396,37.607v12.576
	c-0.248,1.18-0.371,2.383-0.367,3.587c-0.081,4.425,1.097,8.782,3.397,12.563l0.965,8.371c0,0,2.256,5.517,2.297,8.833
	c-0.01,0.268-0.041,0.532-0.096,0.794c-0.087,0.423-0.123,0.854-0.108,1.285c-0.129,3.805,2.16,12.908,2.16,12.908
	s0.136,9.166,1.509,9.703c1.175,0.455-1.569,5.279-2.385,6.666c-0.021-0.085-0.037-0.172-0.047-0.259l-0.17,0.271
	c-0.284,0.742-0.429,1.53-0.429,2.324c-0.157,1.277,0.435,2.531,1.521,3.221c2.61,1.597,4.01,2.921,1.794,3.452
	c-0.814,0.125-1.622,0.296-2.419,0.509c0-0.103-0.081-0.211-0.115-0.306c-0.645,0.252-1.021,0.922-0.903,1.604
	c0.021,1.077,0.298,2.134,0.809,3.084c2.194,4.92,3.716,6.795,3.716,6.795l1.053-0.115c-0.155,0.402-0.359,0.783-0.61,1.134
	c-0.4,0.57-0.932,1.036-1.55,1.359c-0.575,0.344-1.216,0.564-1.882,0.646c-1.505,0.05-2.918,0.735-3.887,1.89
	c-1.358,1.773-2.229,4.185,0.477,6.305l9.817,3.397c0,0,16.892,2.194,15.994-1.598c-0.897-3.79-1.44-7.106-1.44-7.106
	c0.072-2.314-0.393-4.614-1.358-6.72c-0.177-0.344-0.377-0.675-0.598-0.992l0.598-0.061c0,0,1.236-8.378,2.881-9.968
	c0.38-0.366,0.468-0.679,0.38-0.87c0.17-0.455-0.265-0.721-0.815-0.877l-0.122,0.334c-0.538-0.117-1.087-0.179-1.638-0.184
	c0,0-0.55-4.383,1.237-5.979c0.291-0.367,0.417-0.84,0.346-1.305c0.014-0.601-0.05-1.201-0.189-1.786
	c-0.018,0.037-0.038,0.073-0.063,0.109c-0.896-3.982-3.94-10.308-3.94-10.308s-0.135-3.981,0.965-5.578
	c1.102-1.598-0.143-21.662-0.143-21.662s0.415-9.695-0.822-14.214c-1.236-4.518,1.509-9.838,1.509-9.838s0-0.103,0-0.285v-0.067
	l-0.155-1.529c-0.005,0.031-0.005,0.063,0,0.095c-0.279-2.568-0.803-7.222-1.189-9.369c-0.551-3.057,0.143-17.666,0.143-17.666
	l2.466-6.251l4.396,10.771l4.667,14.349c0,0,2.311,3.031,2.364,6.115c0,0.149,0,0.3,0,0.448c-0.037,0.318-0.056,0.638-0.054,0.959
	c-0.082,1.813,0.415,3.604,1.42,5.116c0,0,1.236,6.794,3.159,8.499c1.923,1.706,1.923,5.048,1.923,5.048s2.331,9.839,3.397,11.551
	c0.925,1.455,0.972,5.437,0.965,6.679l0,0c0,0.225,0,0.354,0,0.354s0.327,3.521,0.313,6.469c0,0.367,0,0.72,0,1.053
	c0.003-0.024,0.003-0.049,0-0.073c-0.001,0.805-0.097,1.607-0.285,2.39l-0.04,0.137c0-0.17,0-0.333,0.047-0.495
	c-0.478,2.002-0.706,4.056-0.68,6.114c-0.062,3.533,0.476,7.719,2.616,10.191c3.709,4.254,6.04,3.724,6.04,3.724
	s-1.78,5.313-3.981,6.38c-0.084,0.04-0.161,0.089-0.23,0.149c0-0.108-0.041-0.21-0.055-0.313c-0.496,0.535-0.743,1.256-0.68,1.983
	c-0.156,2.338,1.318,6.116,2.718,7.876c0.521,0.509,1.157,0.882,1.854,1.087c-0.109,0.078-0.226,0.147-0.346,0.21
	c-0.244,0.135-0.497,0.255-0.755,0.36c-0.357,0.151-0.735,0.251-1.12,0.292c-1.508,0.04-2.925,0.729-3.888,1.89
	c-1.358,1.766-2.228,4.178,0.476,6.298l9.819,3.397C513.667,436.199,530.448,438.354,529.565,434.568z"/>
<path fill="#2D293D" d="M465.079,440.847l-9.512-3.397c-2.623-2.12-1.787-4.532-0.462-6.306c0.922-1.144,2.295-1.833,3.764-1.889
	c0.645-0.082,1.263-0.302,1.814-0.646c0.603-0.328,1.119-0.793,1.508-1.359c0.694-1.101,1.069-2.374,1.081-3.675
	c0,0,10.437-3.059,13.289,0c0.51,0.554,0.936,1.179,1.264,1.854c0.949,2.11,1.413,4.406,1.359,6.72c0,0,0.53,3.315,1.393,7.106
	C481.44,443.048,465.079,440.847,465.079,440.847z"/>
<path fill="#2D293D" d="M511.58,436.158l-9.513-3.397c-2.622-2.119-1.787-4.532-0.461-6.298c0.916-1.149,2.288-1.839,3.757-1.889
	c0.376-0.039,0.743-0.138,1.088-0.293c0.25-0.106,0.496-0.227,0.732-0.359c2.657-1.461,2.59-5.049,2.59-5.049s10.43-3.057,13.289,0
	c0.383,0.414,0.718,0.87,0.999,1.358c1.787,3.092,1.591,7.216,1.591,7.216s0.528,3.323,1.358,7.107
	C527.839,438.339,511.58,436.158,511.58,436.158z"/>
<path opacity="0.1" enable-background="new    " d="M476.569,423.568c0.509,0.553,0.935,1.178,1.263,1.854l0,0l-15.628,1.814
	c0.694-1.102,1.069-2.375,1.082-3.677C463.286,423.561,473.715,420.511,476.569,423.568z"/>
<path opacity="0.1" enable-background="new    " d="M524.075,420.245v2.929c-2.433,4.002-14.193,3.125-17.61,1.121
	c0.25-0.105,0.495-0.227,0.733-0.359c2.657-1.462,2.589-5.05,2.589-5.05s10.43-3.057,13.289,0
	C523.459,419.301,523.794,419.757,524.075,420.245z"/>
<path fill="#464353" d="M525.931,407.621c-0.729,1.277-1.349,2.61-1.855,3.988v10.498c-2.663,4.383-16.476,2.922-18.345,0.53
	c-1.868-2.393-3.819-8.616-1.719-9.696c2.1-1.08,3.852-6.38,3.852-6.38s-2.262,0.53-5.849-3.724
	c-3.589-4.253-2.521-13.684-1.855-15.939c0.666-2.255,0-9.832,0-9.832s0.136-5.319-0.924-7.046
	c-1.061-1.725-3.323-11.55-3.323-11.55s0-3.322-1.861-5.049c-1.861-1.725-3.058-8.507-3.058-8.507
	c-1.088-1.693-1.558-3.713-1.325-5.714c0.395-3.322-2.262-6.909-2.262-6.909l-4.52-14.357l-4.253-10.762l-2.391,6.243
	c0,0-0.68,14.615-0.13,17.667c0.55,3.05,1.359,11.162,1.359,11.162s-2.657,5.313-1.462,9.832c1.196,4.518,0.762,14.228,0.762,14.228
	s1.195,20.058,0.129,21.654c-1.066,1.596-0.931,5.585-0.931,5.585s5.436,11.686,3.724,13.283c-1.713,1.596-1.195,5.979-1.195,5.979
	s3.716,0,2.126,1.597s-2.793,9.967-2.793,9.967l-16.068,1.883c0,0-1.468-1.855-3.594-6.795c-2.127-4.939,0.394-4.382,2.533-4.918
	c2.141-0.537,0.788-1.855-1.738-3.452c-2.528-1.597-1.061-5.185-1.061-5.185s3.853-6.509,2.521-7.039
	c-1.333-0.529-1.461-9.702-1.461-9.702s-2.657-10.871-1.991-13.819c0.665-2.949-2.128-9.962-2.128-9.962l-0.929-8.37
	c-2.844-4.749-3.881-10.365-2.923-15.817v-12.909c0,0-3.723-24.977-4.253-37.601c-0.34-8.086-0.245-19.119-0.136-26.003
	c0.068-3.858,0.136-6.421,0.136-6.421l57.4-5.979c0,0-0.055,2.65,1.038,8.527c0.592,3.153,1.509,7.236,2.949,12.339
	c4.117,14.614,1.597,25.506,1.597,25.506l-0.536,18.475c0,0,5.048,12.352,3.987,16.604c-0.641,2.525-1,5.115-1.073,7.719
	c0,0,11.293,26.975,10.098,34.815c-1.197,7.841,3.716,20.199,3.716,20.199S527.262,405.229,525.931,407.621z"/>
<path opacity="0.05" enable-background="new    " d="M493.113,338.4l17.475-2.331C510.588,336.069,500.688,346.173,493.113,338.4z"
	/>
<path opacity="0.1" enable-background="new    " d="M508.061,318.995c0,0,0.598,6.183-3.187,8.506
	C504.874,327.501,511.648,326.441,508.061,318.995z"/>
<path opacity="0.1" enable-background="new    " d="M506.986,299.333c0,0-14.607,12.024-19.921,11.026
	C481.753,309.36,506.986,299.333,506.986,299.333z"/>
<path opacity="0.1" enable-background="new    " d="M471.453,344.039c0,0-11.096,2.521-11.429,6.979
	C459.691,355.474,471.453,344.039,471.453,344.039z"/>
<path opacity="0.05" enable-background="new    " d="M473.892,399.455c0,0-15.675,2.921-11.225,4.911
	c4.451,1.992,11.762,3.588,11.762,3.588S479.49,408.22,473.892,399.455z"/>
<g opacity="0.05">
	<path d="M459.502,407.533c-0.799-0.498-1.327-1.334-1.435-2.27l-0.163,0.278c0,0-1.461,3.588,1.066,5.178
		c0.285,0.183,0.564,0.367,0.816,0.544c0.469-0.089,0.971-0.156,1.453-0.279C463.381,410.455,462.028,409.13,459.502,407.533z"/>
	<path d="M479.694,406.467c0.436-0.395,0.421-1.413,0.156-2.718c-0.68,1.025-0.877,2.629-0.891,3.845
		C479.126,407.172,479.375,406.789,479.694,406.467z"/>
	<path d="M477.282,340.363c-0.577,1.572-0.935,3.216-1.06,4.886c0.303-1.154,0.71-2.277,1.216-3.356L477.282,340.363z"/>
	<path d="M513.184,333.392c0.104-0.477,0.153-0.965,0.144-1.453c-0.197,0.992-0.334,1.909-0.436,2.718
		C512.979,334.241,513.075,333.848,513.184,333.392z"/>
	<path d="M476.909,387.605c0.217-0.326,0.339-1.427,0.394-2.956c-0.492,1.184-0.753,2.449-0.768,3.73
		C476.627,388.106,476.753,387.847,476.909,387.605z"/>
	<path d="M480.17,412.662c-0.824,2.666-1.435,5.393-1.828,8.154l-16.068,1.854c0,0-1.468-1.854-3.594-6.794
		c-0.172-0.382-0.325-0.772-0.456-1.168c-0.965,0.44-1.358,1.439-0.081,4.354c2.126,4.919,3.601,6.795,3.601,6.795l16.068-1.862
		c0,0,1.196-8.371,2.786-9.967C481.413,413.262,480.91,412.859,480.17,412.662z"/>
	<path d="M458.971,388.801c0,0,0.129,9.166,1.461,9.695l0,0c0.68-1.515,1.121-2.954,0.523-3.193
		c-1.359-0.529-1.461-9.702-1.461-9.702s-2.656-10.871-1.99-13.82s-2.127-9.96-2.127-9.96l-0.932-8.371
		c-2.842-4.75-3.88-10.365-2.921-15.816v-12.91c0,0-3.724-24.977-4.253-37.601c-0.34-8.085-0.245-19.119-0.137-26.002
		c0-1.244,0.041-2.345,0.062-3.275l-0.455,0.048c0,0-0.075,2.555-0.136,6.421c-0.109,6.883-0.211,17.916,0.136,25.995
		c0.53,12.624,4.246,37.607,4.246,37.607v12.909c-0.953,5.451,0.086,11.063,2.93,15.812l0.923,8.37c0,0,2.793,7.039,2.127,9.968
		C456.301,377.902,458.971,388.801,458.971,388.801z"/>
	<path d="M506.273,419.091c-1.305-1.89-2.175-4.046-2.548-6.312c-1.637,1.48,0.246,7.229,2.039,9.512
		c1.854,2.391,15.675,3.853,18.345-0.536v-2.529C520.488,422.78,508.027,421.353,506.273,419.091z"/>
	<path d="M526.467,404.075c-0.729,1.276-1.351,2.61-1.861,3.988v1.882c0.306-0.68,0.733-1.59,1.359-2.664
		c0.42-1.045,0.619-2.167,0.583-3.295C526.548,403.986,526.487,404.048,526.467,404.075z"/>
	<path d="M507.09,406.175c0.505-1.023,0.942-2.079,1.311-3.159c0,0-2.262,0.529-5.85-3.725c-2.61-3.091-2.759-8.934-2.386-12.753
		c-0.68,2.263-1.731,11.693,1.855,15.946C504.364,405.264,506.139,405.997,507.09,406.175z"/>
	<path d="M500.159,376.707c0.234,2.617,0.323,5.247,0.264,7.874c0.067-0.415,0.157-0.825,0.273-1.229c0.679-2.263,0-9.831,0-9.831
		s0.136-5.32-0.932-7.046c-1.066-1.727-3.288-11.565-3.288-11.565s0-3.321-1.861-5.048c-1.863-1.725-3.059-8.506-3.059-8.506
		c-1.098-1.691-1.577-3.71-1.358-5.714c0.4-3.323-2.255-6.91-2.255-6.91l-4.52-14.351l-4.253-10.763l-2.398,6.252
		c0,0,0,0.789-0.082,2.039l1.943-5.076l4.253,10.742l4.52,14.35c0,0,2.656,3.588,2.255,6.909c-0.219,2.006,0.261,4.023,1.359,5.714
		c0,0,1.195,6.795,3.058,8.508c1.861,1.711,1.855,5.048,1.855,5.048s2.262,9.831,3.321,11.55
		C500.315,371.373,500.159,376.707,500.159,376.707z"/>
</g>
<path fill="#FFCDD3" d="M511.315,132.243l-0.999,4.851l0.062,2.161l0.041,1.59l-5.545,0.571l-0.617-1.148l0,0
	c-1.149-2.079-3.534-6.305-4.302-6.958c-1.025-0.856-2.854-14.35-0.68-13.548c1.339,0.517,2.438,1.512,3.085,2.792
	C502.36,122.554,513.278,123.804,511.315,132.243z"/>
<path opacity="0.1" enable-background="new    " d="M510.418,140.845l-5.544,0.571l-0.617-1.148l0,0
	c1.537-1.75,4.098-2.171,6.114-1.005L510.418,140.845z"/>
<path fill="#6C63FF" d="M511.818,143.474l-7.312,1.692l-0.156-1.087l-0.414-2.928c0,0,2.895-3.86,7.081-0.965l0.366,1.488
	L511.818,143.474z"/>
<path fill="#FFCDD3" d="M393.392,132.773l-7.808,4.186l-0.68-1.468c-0.74-1.556-1.848-3.9-2.152-4.756
	c-0.463-1.291-3.718-2.921-3.718-2.921c-8.153-7.807,1.563-14.52,1.563-14.52c5.15-10.361,10.87,3.52,10.87,3.52
	s0.802,7.318,0.238,7.807c-0.564,0.489-0.564,2.494-0.564,2.494c0.744,1.436,1.374,2.929,1.883,4.464
	C393.262,132.317,393.392,132.773,393.392,132.773z"/>
<path opacity="0.1" enable-background="new    " d="M393.392,132.773l-7.808,4.186l-0.68-1.468c1.102-0.924,5.009-4.077,6.292-3.948
	c0.613,0.077,1.232,0.093,1.849,0.048C393.262,132.317,393.392,132.773,393.392,132.773z"/>
<path fill="#6C63FF" d="M394.187,135.13l-8.772,4.322l-0.176-1.882l-0.123-1.305c0,0,5.083-4.355,6.584-4.185
	c0.76,0.11,1.53,0.11,2.29,0l0.101,1.576L394.187,135.13z"/>
<path fill="#FFCDD3" d="M490.056,164.469c0,0-38.239,4.314-31.091,1.991c4.974-1.624,6.95-4.756,7.364-8.289
	c0.34-2.942-0.421-6.115-1.42-8.833c-0.898-2.411-2.037-4.726-3.397-6.91c0,0,29.216-16.076,23.381-1.46
	c-0.9,2.21-1.459,4.544-1.658,6.923c-0.176,2.363,0.08,4.739,0.754,7.012C485.091,158.59,487.19,161.9,490.056,164.469z"/>
<path opacity="0.1" enable-background="new    " d="M484.871,140.947c-0.9,2.21-1.459,4.545-1.658,6.923
	c-2.751,2.317-5.768,2.161-9.646,2.161c-2.978,0-6.278,0.72-8.657-0.713c-0.898-2.411-2.037-4.726-3.397-6.91
	C461.512,142.407,490.722,126.332,484.871,140.947z"/>
<circle fill="#FFCDD3" cx="473.049" cy="135.239" r="15.811"/>
<path opacity="0.1" enable-background="new    " d="M490.056,164.469c0,0-38.239,4.314-31.091,1.991
	c4.974-1.624,6.95-4.756,7.364-8.289c1.903-2.039,5.728-3.553,8.153-4.342c2.243-0.754,4.664-0.794,6.931-0.115
	c0.892,0.269,1.74,0.662,2.521,1.169C485.048,158.583,487.167,161.901,490.056,164.469z"/>
<path opacity="0.1" enable-background="new    " d="M511.818,143.474l-7.312,1.692l-0.156-1.087
	c1.604-2.203,4.416-3.165,7.033-2.406L511.818,143.474z"/>
<path opacity="0.1" enable-background="new    " d="M394.187,135.13l-8.772,4.322l-0.176-1.882c2.841-1.527,5.794-2.838,8.832-3.92
	L394.187,135.13z"/>
<path opacity="0.1" enable-background="new    " d="M505.18,260.821c-14.818,2.364-35.881,5.381-39.224,4.361
	c-2.779-0.843-11.639-0.753-19.351-0.489c0.068-3.858,0.136-6.421,0.136-6.421l57.4-5.978
	C504.142,252.295,504.087,254.944,505.18,260.821z"/>
<path fill="#3F3D56" d="M519.951,257.343c0,0-48.764,8.37-53.995,6.794c-5.232-1.576-32.104,0.129-32.104,0.129
	c-12.094,8.105-7.046-3.853-7.046-3.853s-1.06-6.244,0.401-11.292c0.98-3.707,1.651-7.488,2.005-11.307c0,0-0.266-7.976,1.195-9.838
	c1.461-1.861,3.193-15.145,3.193-15.145s1.325-9.037,1.195-11.027c-0.128-1.991,0.395-7.576,0.395-7.576l1.732-9.302
	c-9.967-1.325-40.264-19.929-40.264-19.929c-1.46-6.244-12.753-20.859-12.753-20.859c-0.164-1.229-0.477-2.433-0.932-3.587
	c-0.794-2.127,11.164-6.38,11.164-6.38s8.9,10.871,10.762,13.82c1.862,2.949,8.235,8.371,8.235,8.371
	c0.99-0.102,1.99,0.029,2.922,0.38l0.156,0.048l0,0c2.136,0.838,4.139,1.982,5.944,3.397c2.997-0.072,5.903,1.025,8.106,3.057
	c0,0,5.436-0.802,6.38,0.129s5.579,0,5.579,0s4.647-9.832,7.704-6.978c3.058,2.853,16.028,2.717,16.028,2.717
	c1.726-2.296,5.931-3.941,8.561-4.756c2.243-0.751,4.663-0.792,6.931-0.115c0.978,0.292,1.897,0.751,2.717,1.359l7.89,7.705
	c0,0,2.255-2.929,1.99-3.587c-0.265-0.659,2.657-1.196,2.657-1.196s3.852-1.196,5.313-1.597c1.461-0.4,2.799,1.183,2.922,1.325
	c-0.048-0.17-1.046-3.397-0.679-5.843c0.366-2.446-1.598-4.756-1.598-4.756c4.647-11.428,15.145-1.862,15.145-1.862
	s1.196,6.244,0.136,8.636c-1.06,2.391,1.061,7.439,0.795,8.771c-0.265,1.332,0.537,3.587,0.537,6.115s-1.359,7.304-2.126,9.431
	c-0.768,2.127-7.175,6.91-7.175,6.91s-0.401,7.576-3.193,11.958c-2.793,4.382-1.04,19.371-1.04,19.371s2.657,11.693,5.979,15.416
	C515.039,236.123,519.951,257.343,519.951,257.343z"/>
<path opacity="0.1" enable-background="new    " d="M448.868,169.911c0,0-1.462-4.382-2.792-4.756
	c-1.323-0.486-2.61-1.063-3.853-1.726l0.855-1.638c0,0,4.987,1.359,5.789,2.833C449.67,166.1,448.868,169.911,448.868,169.911z"/>
<path opacity="0.1" enable-background="new    " d="M422.158,160.216c-0.265,1.359-12.094,2.521-12.094,2.521l5.979-5.993l0,0
	l0.149,0.054l0,0C418.338,157.641,420.347,158.792,422.158,160.216z"/>
<circle fill="#575988" cx="387.942" cy="141.979" r="1.06"/>
<circle fill="#575988" cx="389.301" cy="144.106" r="1.06"/>
<circle fill="#575988" cx="390.633" cy="146.07" r="1.06"/>
<circle fill="#575988" cx="392.025" cy="148.189" r="1.06"/>
<circle fill="#575988" cx="517.274" cy="148.074" r="0.863"/>
<circle fill="#575988" cx="517.41" cy="150.038" r="0.863"/>
<circle fill="#575988" cx="517.525" cy="151.995" r="0.863"/>
<path opacity="0.1" enable-background="new    " d="M448.915,205.922c-0.129-0.157,29.828,37.669,53.078,15.811
	C502.015,221.739,465.276,226.72,448.915,205.922z"/>
<path opacity="0.1" enable-background="new    " d="M431.726,225.585c0,0,17.924,0.489,19.799,5.646v5.367
	c-1.038,0.575-2.299,0.575-3.336,0c-1.808-0.979-12.644-6.481-16.463-3.832V225.585z"/>
<path fill="#3F3D56" d="M432.059,225.585c0,0,17.142,0.47,18.936,5.389v5.108c-0.992,0.552-2.2,0.552-3.193,0
	c-1.725-0.924-12.087-6.176-15.742-3.648V225.585z"/>
<path opacity="0.1" enable-background="new    " d="M441.509,186.666c1.831,4.239,4.165,8.243,6.951,11.925
	c3.03,4.07,6.701,7.619,10.872,10.511C459.332,209.102,441.809,189.126,441.509,186.666z"/>
<path opacity="0.1" enable-background="new    " d="M435.646,165.841c0,0,2.99,12.91,10.694,17.292L435.646,165.841z"/>
<path opacity="0.1" enable-background="new    " d="M431.059,167.146c-0.073-0.238-2.656,10.191,9.935,15.988
	C440.993,183.134,435.646,181.319,431.059,167.146z"/>
<path opacity="0.1" enable-background="new    " d="M509.324,158.49c-0.197,0,6.21,4.076,7.957,5.979
	C517.281,164.469,513.108,158.218,509.324,158.49z"/>
<path fill="#2D293D" d="M468.775,149.568c0.01,1.377,1.134,2.486,2.51,2.477c0.069,0,0.14-0.004,0.208-0.01
	c4.817,0.299,9.839,0.51,14.268-1.358c0.831-0.297,1.577-0.791,2.175-1.441c0.788-0.972,0.944-2.29,1.265-3.499
	c0.625-2.364,1.956-4.464,2.914-6.712c1.621-3.8,2.163-7.973,1.569-12.061c-0.125-1.253-0.54-2.46-1.209-3.526
	c-1.277-1.828-3.608-2.568-5.3-4.022c-1.692-1.454-2.779-3.676-4.757-4.756c-1.779-0.992-3.961-0.87-5.965-0.53
	c-3.942,0.67-7.721,2.088-11.13,4.179c-1.148,0.68-2.404,1.515-3.723,1.264c-1.155-0.218-1.998-1.189-2.718-2.1
	c-0.927,2.175-1.315,4.54-1.135,6.896c0.05,0.346,0.038,0.698-0.033,1.04c-0.167,0.413-0.419,0.786-0.741,1.094
	c-1.189,1.359-1.931,3.567-0.755,4.967c0.51,0.604,1.299,0.938,1.794,1.556c0.891,1.107,0.591,2.718,0.571,4.131
	c-0.049,0.493,0.076,0.988,0.354,1.399c0.522,0.488,1.262,0.666,1.949,0.47c0.674-0.203,1.381-0.271,2.079-0.197
	c0.737,0.239,1.373,0.717,1.808,1.358C466.968,143.046,467.838,146.158,468.775,149.568z"/>
<g opacity="0.1">
	<path d="M488.499,148.033c-0.597,0.649-1.343,1.144-2.174,1.44c-4.457,1.855-9.471,1.645-14.269,1.359
		c-0.515,0.005-1.023-0.109-1.487-0.333c-0.733-0.428-1.013-1.325-1.237-2.14c-0.938-3.397-1.801-6.516-4.028-9.349
		c-0.43-0.653-1.066-1.144-1.808-1.393c-0.699-0.066-1.404,0.001-2.078,0.197c-0.688,0.199-1.427,0.022-1.951-0.462
		c-0.277-0.411-0.402-0.906-0.354-1.4c0-1.427,0.319-3.023-0.57-4.131c-0.496-0.619-1.284-0.951-1.793-1.563
		c-0.679-0.918-0.796-2.135-0.307-3.166c-0.849,1.359-1.209,3.064-0.225,4.233c0.51,0.604,1.299,0.938,1.794,1.556
		c0.891,1.114,0.591,2.717,0.571,4.131c-0.052,0.493,0.07,0.988,0.346,1.399c0.524,0.49,1.268,0.668,1.957,0.469
		c0.674-0.202,1.38-0.27,2.079-0.196c0.737,0.239,1.373,0.717,1.808,1.358c2.222,2.833,3.092,5.945,4.029,9.355
		c0.109,0.84,0.529,1.608,1.176,2.154c0.466,0.225,0.978,0.336,1.494,0.326c4.817,0.299,9.838,0.516,14.269-1.358
		c0.832-0.295,1.579-0.79,2.175-1.441c0.299-0.383,0.528-0.815,0.679-1.277C488.602,147.891,488.554,147.965,488.499,148.033z"/>
	<path d="M457.748,124.993c0.214-0.231,0.378-0.504,0.482-0.801c0.061-0.344,0.061-0.696,0-1.04
		c-0.133-1.937,0.119-3.881,0.74-5.721l-0.088-0.102c-0.93,2.171-1.319,4.536-1.135,6.89
		C457.769,124.477,457.769,124.736,457.748,124.993z"/>
</g>
<path opacity="0.1" enable-background="new    " d="M465.956,159.149c0,0,19.751,2.623,21.524-0.346"/>
<path opacity="0.1" enable-background="new    " d="M504.351,150.976c0,0,10.98,0,13.393,4.131"/>
</svg>
