<?xml version="1.0" encoding="utf-8"?>
<!-- Generator: Adobe Illustrator 16.0.0, SVG Export Plug-In . SVG Version: 6.00 Build 0)  -->
<!DOCTYPE svg PUBLIC "-//W3C//DTD SVG 1.1//EN" "http://www.w3.org/Graphics/SVG/1.1/DTD/svg11.dtd">
<svg version="1.1" id="Capa_1" xmlns="http://www.w3.org/2000/svg" xmlns:xlink="http://www.w3.org/1999/xlink" x="0px" y="0px"
	 width="600px" height="600px" viewBox="0 0 600 600" enable-background="new 0 0 600 600" xml:space="preserve">
<polygon fill="#E6E6E6" points="597.771,552.109 170.923,558.605 1.487,528.299 266,528.299 "/>
<circle fill="#FF6584" cx="492.063" cy="103.655" r="68.91"/>
<path fill="#3F3D56" d="M117.904,531.9c0,0,1.008-21.12,21.671-18.666"/>
<circle fill="#6C63FF" cx="112.065" cy="501.459" r="10.342"/>
<rect x="110.382" y="518.875" fill="#3F3D56" width="2.919" height="20.435"/>
<path fill="#3F3D56" d="M458.484,535.508c0,0,1.008-21.12,21.672-18.666"/>
<circle fill="#6C63FF" cx="452.646" cy="505.066" r="10.342"/>
<rect x="450.964" y="522.482" fill="#3F3D56" width="2.919" height="20.435"/>
<path fill="#3F3D56" d="M508.273,539.115c0,0,1.008-21.119,21.671-18.665"/>
<circle fill="#6C63FF" cx="502.435" cy="508.675" r="10.343"/>
<rect x="500.752" y="526.09" fill="#3F3D56" width="2.92" height="20.436"/>
<path fill="#3F3D56" d="M199.441,521.799c0,0,1.007-21.121,21.671-18.666"/>
<circle fill="#6C63FF" cx="193.603" cy="491.357" r="10.342"/>
<rect x="191.919" y="508.772" fill="#3F3D56" width="2.92" height="20.435"/>
<path fill="#3F3D56" d="M45.747,525.406c0,0,1.009-21.121,21.672-18.665"/>
<circle fill="#6C63FF" cx="39.908" cy="494.965" r="10.342"/>
<rect x="38.226" y="512.381" fill="#3F3D56" width="2.919" height="20.435"/>
<circle fill="#3F3D56" cx="295.796" cy="376.028" r="112.677"/>
<path fill="#FFFFFF" d="M224.858,385.073c10.557-12.639,29.36-14.327,41.999-3.77c1.366,1.141,2.626,2.403,3.769,3.77
	c13.239-12.639,13.725-33.616,1.087-46.855c-12.638-13.239-33.616-13.727-46.855-1.086c-13.239,12.637-13.726,33.614-1.087,46.854
	C224.125,384.356,224.487,384.72,224.858,385.073z"/>
<path fill="#FFFFFF" d="M314.337,385.073c10.557-12.639,29.36-14.327,41.999-3.77c1.365,1.141,2.628,2.403,3.769,3.77
	c13.239-12.639,13.726-33.616,1.087-46.855c-12.638-13.239-33.615-13.727-46.854-1.086c-13.239,12.637-13.725,33.614-1.087,46.854
	C313.604,384.356,313.967,384.72,314.337,385.073z"/>
<circle fill="#3F3D56" cx="236.436" cy="349.817" r="11.4"/>
<circle fill="#3F3D56" cx="325.912" cy="349.817" r="11.4"/>
<circle fill="#FF6584" cx="214.602" cy="404.197" r="13.256"/>
<circle fill="#FF6584" cx="367.047" cy="404.197" r="13.256"/>
<polygon fill="#FF6584" points="290.824,377.685 280.882,420.768 297.452,404.196 "/>
<polygon fill="#3F3D56" points="341.908,543.387 330.622,533.912 330.885,543.387 327.379,543.387 327.1,533.368 311.859,543.387 
	305.479,543.387 326.985,529.251 326.151,499.569 325.529,477.15 329.027,477.056 329.659,499.569 330.49,529.225 347.359,543.387 
	"/>
<polygon fill="#3F3D56" points="288.881,543.387 277.593,533.912 277.856,543.387 274.36,543.387 274.079,533.368 258.839,543.387 
	252.459,543.387 273.956,529.251 273.124,499.569 272.501,477.15 276.006,477.056 276.638,499.569 277.461,529.225 294.332,543.387 
	"/>
<path fill="#3F3D56" d="M297.452,255.066c-3.092,0-5.819,2.401-7.643,6.09c-1.608-5.547-4.984-9.405-8.927-9.405
	c-0.268,0.027-0.534,0.072-0.796,0.134c-1.516-5.922-5.039-10.076-9.146-10.076c-5.491,0-9.942,7.419-9.942,16.57
	s4.452,16.57,9.942,16.57c0.268-0.027,0.533-0.072,0.795-0.134c1.516,5.922,5.039,10.076,9.146,10.076
	c3.091,0,5.819-2.401,7.642-6.09c1.607,5.546,4.984,9.404,8.928,9.404c5.491,0,9.942-7.418,9.942-16.57
	S302.943,255.066,297.452,255.066z"/>
<path fill="#6C63FF" d="M190.033,418.727L190.033,418.727c-18.303,0-33.14-14.837-33.14-33.14l0,0v-16.571
	c0-18.302,14.837-33.14,33.14-33.14l0,0l0,0l0,0V418.727L190.033,418.727z"/>
<path fill="#6C63FF" d="M401.558,335.876L401.558,335.876c18.303,0,33.141,14.838,33.141,33.14v16.571
	c0,18.303-14.838,33.14-33.141,33.14l0,0l0,0l0,0V335.876L401.558,335.876z"/>
<path fill="#6C63FF" d="M418.924,371.62h-5.259c0-66.685-54.251-120.936-120.937-120.936S171.791,304.936,171.791,371.62h-5.258
	c0-69.583,56.611-126.195,126.196-126.195S418.924,302.037,418.924,371.62z"/>
<polygon fill="#3F3D56" points="85.266,284.19 85.266,284.19 85.266,284.19 "/>
<path fill="#3F3D56" d="M112.282,270.277l0.001-0.001l-2.471-1.029l-10.423-4.406l-3.736-1.58l-0.287,0.724l0,0l-5.019,12.671
	l14.125,5.978l0.074,0.068l-0.952,2.244c-0.13,0.206-0.242,0.422-0.332,0.647c-0.667,1.684,0.593,3.358,1.783,3.83
	c1.19,0.471,2.696-0.511,3.362-2.195c0.658-1.661,0.015-3.77-1.145-4.279l0.001-0.002l-2.47-1.029l-8.45-3.285l4.829-12.191
	l-0.716-0.283l-4.83,12.195l-1.045-0.406l4.849-12.244l0.127,0.054l9.934,4.205l0.074,0.068l-0.952,2.244
	c-0.13,0.205-0.242,0.421-0.332,0.647c-0.667,1.683,0.592,3.359,1.783,3.829c1.19,0.472,2.696-0.511,3.362-2.194
	C114.085,272.897,113.443,270.787,112.282,270.277z"/>
<path fill="#3F3D56" d="M161.168,301.387c-5.127-2.931-4.101-9.364-4.101-9.364c-0.129-4.179-3.582-3.588-3.582-3.588l-1.257,0.287
	c-0.583-0.271-1.227-0.39-1.869-0.345l-1.912,0.321c4.353,1.023,3.995,4.665,3.995,4.665l0.61,4.257l-11.406-4.601l1.31-3.088
	c0.181-0.285,0.335-0.586,0.461-0.899c0.926-2.338-0.823-4.665-2.477-5.319c-1.653-0.654-3.745,0.71-4.671,3.048
	c-0.913,2.307-0.021,5.236,1.591,5.945l-0.001,0.002l3.431,1.429l0.025-0.081L161.168,301.387z M155.376,293.906l0.366,4.075
	c-1.291-1.812-1.897-4.023-1.711-6.24c-0.03-0.789-0.297-1.55-0.764-2.187C154.732,290.493,155.547,292.174,155.376,293.906
	L155.376,293.906z"/>
<path fill="#3F3D56" d="M74.168,241.119l0.001-0.003l-3.431-1.429l-14.339-5.574l3.619-3.22c1.471-1.961,4.227-2.413,6.248-1.023
	l-1.123-1.669c0,0-2.111-2.795-5.067,0.162c0,0-3.657,5.391-9.401,4.017l19.618,8.303l0.103,0.094l-1.322,3.117
	c-0.181,0.285-0.335,0.586-0.461,0.899c-0.926,2.338,0.823,4.664,2.476,5.318s3.745-0.71,4.671-3.047
	C76.672,244.756,75.78,241.827,74.168,241.119z"/>
<path fill="#3F3D56" d="M126.666,222.875l-1.322,3.117c-0.181,0.285-0.335,0.586-0.461,0.899c-0.926,2.338,0.823,4.664,2.477,5.319
	c1.653,0.655,3.744-0.71,4.67-3.048c0.913-2.306,0.021-5.236-1.59-5.944l0.001-0.003l-3.431-1.429l-11.737-4.563l6.707-16.932
	l-0.994-0.394l-6.708,16.939l-1.452-0.564l6.735-17.005l0.177,0.075l13.796,5.839l0.103,0.093l-1.322,3.117
	c-0.18,0.285-0.335,0.586-0.461,0.9c-0.926,2.338,0.823,4.664,2.477,5.319c1.653,0.655,3.744-0.71,4.67-3.048
	c0.913-2.306,0.021-5.236-1.59-5.944l0.001-0.003l-3.431-1.429l-14.021-5.927l0,0h-0.001l-0.455-0.192l-5.189-2.193l-7.369,18.605
	l19.617,8.303L126.666,222.875z"/>
<path fill="#3F3D56" d="M64.499,127.59l0.002-0.005l-5.906-2.459L33.91,115.53l6.23-5.542c0,0,4.144-5.75,10.754-1.762l-1.933-2.874
	c0,0-3.634-4.812-8.722,0.279c0,0-6.295,9.281-16.183,6.915l33.77,14.293l0.177,0.16l-2.275,5.366
	c-0.312,0.49-0.577,1.009-0.794,1.548c-1.594,4.025,1.417,8.029,4.262,9.156c2.846,1.127,6.446-1.222,8.04-5.247
	C68.809,133.853,67.272,128.809,64.499,127.59z"/>
<path fill="#3F3D56" d="M82.624,208.195c-12.259-7.009-9.805-22.389-9.805-22.389c-0.309-9.992-8.564-8.578-8.564-8.578
	l-3.004,0.686c-1.396-0.648-2.933-0.932-4.468-0.826l-4.57,0.769c10.407,2.445,9.552,11.151,9.552,11.151l1.458,10.179l-27.269-11
	l3.131-7.382c0.433-0.682,0.802-1.402,1.103-2.151c2.214-5.59-1.968-11.15-5.921-12.716s-8.953,1.697-11.167,7.288
	c-2.184,5.514-0.05,12.519,3.803,14.211l-0.003,0.006l8.203,3.417l0.061-0.193L82.624,208.195z M68.776,190.31l0.877,9.777
	c-5.148-6.835-4.096-14.955-4.096-14.955c-0.072-1.885-0.708-3.707-1.826-5.227C69.646,183.444,68.776,190.31,68.776,190.31
	L68.776,190.31z"/>
<rect fill="none" width="600" height="600"/>
</svg>
