<?xml version="1.0" encoding="utf-8"?>
<!-- Generator: Adobe Illustrator 16.0.0, SVG Export Plug-In . SVG Version: 6.00 Build 0)  -->
<!DOCTYPE svg PUBLIC "-//W3C//DTD SVG 1.1//EN" "http://www.w3.org/Graphics/SVG/1.1/DTD/svg11.dtd">
<svg version="1.1" id="Capa_1" xmlns="http://www.w3.org/2000/svg" xmlns:xlink="http://www.w3.org/1999/xlink" x="0px" y="0px"
	 width="275px" height="241px" viewBox="120.102 102.102 275 241" enable-background="new 120.102 102.102 275 241"
	 xml:space="preserve">
<g>
	<path fill="#FCFCFC" d="M364.904,120.515h-79.109c-5.135,0-9.303,4.164-9.303,9.304v79.949c0,5.139,4.16,9.304,9.303,9.304h29.666
		c-1.377,37.089-11.342,55.876-29.666,55.876c-5.135,0-9.303,4.163-9.303,9.305v37.867c0,5.137,4.16,9.303,9.303,9.303
		c14.412,0,27.373-3.073,38.521-9.112c11.069-6.019,20.518-14.64,28.059-25.646c7.33-10.701,12.887-23.61,16.51-38.385
		c3.527-14.411,5.318-30.73,5.318-48.513v-79.95C374.208,124.679,370.035,120.515,364.904,120.515z M235.671,120.515h-79.108
		c-5.131,0-9.298,4.164-9.298,9.304v79.949c0,5.139,4.167,9.304,9.298,9.304h29.252c-1.364,37.089-11.188,55.876-29.252,55.876
		c-5.131,0-9.298,4.163-9.298,9.305v37.867c0,5.137,4.167,9.303,9.298,9.303c14.41,0,27.378-3.073,38.526-9.112
		c11.076-6.019,20.516-14.64,28.057-25.646c7.344-10.701,12.898-23.61,16.521-38.392c3.523-14.404,5.309-30.724,5.309-48.5v-79.957
		C244.976,124.679,240.808,120.515,235.671,120.515z"/>
</g>
</svg>
