<?xml version="1.0" encoding="utf-8"?>
<!-- Generator: Adobe Illustrator 16.0.0, SVG Export Plug-In . SVG Version: 6.00 Build 0)  -->
<!DOCTYPE svg PUBLIC "-//W3C//DTD SVG 1.1//EN" "http://www.w3.org/Graphics/SVG/1.1/DTD/svg11.dtd">
<svg version="1.1" id="Capa_1" xmlns="http://www.w3.org/2000/svg" xmlns:xlink="http://www.w3.org/1999/xlink" x="0px" y="0px"
	 width="600px" height="600px" viewBox="0 0 600 600" enable-background="new 0 0 600 600" xml:space="preserve">
<rect fill="none" width="600" height="600"/>
<path fill="#3F3D56" d="M328.463,160.526h-3.109V75.319c0-27.236-22.08-49.316-49.317-49.316l0,0H95.514
	c-27.236,0-49.315,22.08-49.315,49.316l0,0v467.454c0,27.236,22.079,49.314,49.315,49.314h180.523
	c27.237,0,49.315-22.078,49.317-49.314V221.178h3.109V160.526z"/>
<path fill="#FFFFFF" d="M314.857,75.663v466.765c0,20.342-16.489,36.83-36.83,36.832H96.631
	c-20.337-0.002-36.823-16.49-36.822-36.826c0-0.002,0-0.004,0-0.006V75.663c-0.003-20.337,16.481-36.827,36.818-36.83
	c0.001,0,0.002,0,0.004,0h22.012c-3.653,8.942,0.635,19.153,9.577,22.806c2.103,0.859,4.353,1.3,6.625,1.299h103.42
	c9.657,0.005,17.49-7.819,17.494-17.477c0.002-2.273-0.44-4.524-1.3-6.628h23.567C298.369,38.833,314.857,55.323,314.857,75.663z"/>
<circle fill="#FF6584" cx="141.799" cy="115.986" r="48.225"/>
<ellipse transform="matrix(-0.9952 -0.0981 0.0981 -0.9952 429.0454 708.9529)" fill="#3F3D56" cx="231.95" cy="343.93" rx="31.998" ry="65.288"/>
<path fill="#6C63FF" d="M224.405,450.57c-5.209-77.777,14.934-152.775,15.138-153.522l2.439,0.665
	c-0.203,0.745-20.233,75.349-15.055,152.689L224.405,450.57z"/>
<rect x="230.284" y="338.907" transform="matrix(-0.9238 0.3828 -0.3828 -0.9238 604.8195 559.9824)" fill="#6C63FF" width="32.813" height="2.529"/>
<rect x="214.273" y="328.491" transform="matrix(-0.5564 0.8309 -0.8309 -0.5564 622.0424 357.7016)" fill="#6C63FF" width="2.529" height="32.813"/>
<ellipse transform="matrix(-0.9952 -0.0981 0.0981 -0.9952 306.6682 487.4474)" fill="#E6E6E6" cx="165.32" cy="236.183" rx="62.584" ry="127.697"/>
<path fill="#3F3D56" d="M151.767,444.68c-10.175-151.921,29.169-298.411,29.567-299.873l2.439,0.665
	c-0.397,1.458-39.629,147.554-29.484,299.04L151.767,444.68z"/>
<rect x="162.058" y="227.569" transform="matrix(-0.9238 0.3829 -0.3829 -0.9238 461.1151 365.9016)" fill="#3F3D56" width="64.182" height="2.528"/>
<rect x="131.952" y="205.98" transform="matrix(-0.5561 0.8311 -0.8311 -0.5561 405.1623 259.7517)" fill="#3F3D56" width="2.529" height="64.181"/>
<ellipse transform="matrix(-0.9365 -0.3507 0.3507 -0.9365 690.1586 492.2282)" fill="#6C63FF" cx="389.649" cy="183.622" rx="85.641" ry="174.742"/>
<path fill="#3F3D56" d="M298.83,454.664C338.813,250.256,442.34,70.446,443.379,68.653l2.189,1.27
	c-1.041,1.789-104.359,181.248-144.258,385.228L298.83,454.664z"/>
<rect x="386.448" y="182.781" transform="matrix(-0.9912 0.1325 -0.1325 -0.9912 881.3095 309.4626)" fill="#3F3D56" width="87.827" height="2.529"/>
<rect x="345.268" y="130.91" transform="matrix(-0.7513 0.66 -0.66 -0.7513 722.2582 77.4616)" fill="#3F3D56" width="2.53" height="87.827"/>
<path fill="#6C63FF" d="M59.809,456.904l-1.556,87.508c0,20.705,18.038,37.49,38.378,37.49h181.396
	c20.341,0,38.386-16.785,38.386-37.49l-1.557-86.738C223.408,422.225,138.845,424.449,59.809,456.904z"/>
<path fill="#3F3D56" d="M459.252,333.364l9.656-7.722c-7.502-0.828-10.582,3.263-11.844,6.5c-5.859-2.434-12.24,0.756-12.24,0.756
	l19.318,7.014C463.168,337.309,461.473,335.037,459.252,333.364z"/>
<path fill="#3F3D56" d="M210.795,84.471l9.654-7.723c-7.501-0.828-10.582,3.263-11.844,6.501
	c-5.859-2.433-12.239,0.755-12.239,0.755l19.319,7.014C214.71,88.416,213.014,86.145,210.795,84.471z"/>
<path fill="#3F3D56" d="M505.018,250.119l9.654-7.723c-7.5-0.828-10.582,3.263-11.844,6.501c-5.859-2.434-12.238,0.755-12.238,0.755
	l19.318,7.014C508.934,254.063,507.236,251.792,505.018,250.119z"/>
<ellipse transform="matrix(-0.1378 -0.9905 0.9905 -0.1378 20.4959 920.1489)" fill="#3F3D56" cx="410.733" cy="451.154" rx="12.35" ry="6.053"/>
<circle fill="#6C63FF" cx="458.137" cy="426.108" r="17.758"/>
<path fill="#3F3D56" d="M417.959,536.005c-4.475-7.511-7.873-15.609-10.098-24.064c-4.389-17.212-2.871-36.472,6.83-51.675
	c9.309-14.59,24.611-23.746,39.559-31.649c1.881-0.995,3.768-1.98,5.658-2.953c0.721-0.374,1.408,0.694,0.684,1.068
	c-15.32,7.93-31.459,16.345-42.141,30.351c-11.258,14.764-13.922,34.453-9.906,52.285c2.133,9.115,5.654,17.846,10.443,25.888"/>
<rect x="449.827" y="421.255" transform="matrix(-0.9287 -0.3708 0.3708 -0.9287 710.0034 990.886)" fill="#3F3D56" width="0.845" height="11.879"/>
<ellipse transform="matrix(0.465 -0.8853 0.8853 0.465 -216.785 632.1132)" fill="#3F3D56" cx="414.62" cy="495.425" rx="12.351" ry="6.052"/>
</svg>
