<?xml version="1.0" encoding="utf-8"?>
<!-- Generator: Adobe Illustrator 16.0.0, SVG Export Plug-In . SVG Version: 6.00 Build 0)  -->
<!DOCTYPE svg PUBLIC "-//W3C//DTD SVG 1.1//EN" "http://www.w3.org/Graphics/SVG/1.1/DTD/svg11.dtd">
<svg version="1.1" id="Capa_1" xmlns="http://www.w3.org/2000/svg" xmlns:xlink="http://www.w3.org/1999/xlink" x="0px" y="0px"
	 width="600px" height="600px" viewBox="0 0 600 600" enable-background="new 0 0 600 600" xml:space="preserve">
<path fill="#3F3D56" d="M63.644,193.493h203.815c5.525,0,10.005,4.479,10.005,10.005l0,0v15.892l0,0H53.639l0,0v-15.892
	C53.639,197.971,58.118,193.493,63.644,193.493z"/>
<path fill="#F9A825" d="M263.59,191.642c-1.007,0.005-2.006,0.175-2.958,0.504c-0.738-2.969-3.743-4.778-6.712-4.04
	c-2.473,0.615-4.208,2.837-4.203,5.386c0,0.027,0.007,0.053,0.007,0.081c-0.693,0.066-1.378,0.208-2.041,0.422
	c-0.379-1.509-1.375-2.792-2.743-3.535c1.778-0.983,3.184-2.522,4.002-4.382c4.526-0.073,8.173-3.345,8.173-7.385
	c0-4.086-3.727-7.399-8.324-7.399c-1.007,0.004-2.006,0.174-2.958,0.503c-0.698-2.974-3.675-4.819-6.648-4.121
	c-2.974,0.698-4.819,3.675-4.121,6.648c0.038,0.162,0.083,0.321,0.135,0.478c-0.221,0.154-0.427,0.327-0.634,0.499
	c-1.046-0.901-2.405-1.353-3.783-1.259c-1.673-4.805-6.924-7.344-11.729-5.671c-3.646,1.27-6.114,4.679-6.182,8.54
	c-0.742,0.059-1.475,0.205-2.183,0.435c-0.08-0.313-0.186-0.618-0.319-0.913c1.477-1.302,2.332-3.171,2.352-5.14
	c0-4.087-3.727-7.399-8.324-7.399c-1.007,0.004-2.006,0.174-2.958,0.503c-0.698-2.973-3.674-4.818-6.648-4.121
	c-2.974,0.698-4.819,3.675-4.121,6.648c0.038,0.162,0.083,0.321,0.135,0.478c-2.361,1.64-3.823,4.286-3.954,7.158
	c-0.078,0.069-0.167,0.125-0.242,0.199c0.138-0.528,0.21-1.072,0.215-1.618c0-4.086-3.727-7.399-8.324-7.399
	c-1.006,0.005-2.006,0.175-2.958,0.504c-0.698-2.974-3.675-4.819-6.648-4.121c-2.974,0.698-4.819,3.674-4.121,6.648
	c0.038,0.162,0.083,0.321,0.135,0.479c-4.191,2.896-5.241,8.642-2.345,12.833c0.633,0.917,1.428,1.711,2.345,2.345
	c-0.375,1.074-0.375,2.245,0,3.319c-0.927,0.647-1.729,1.457-2.367,2.39c-0.81-2.936-3.846-4.661-6.782-3.851
	c-2.204,0.607-3.804,2.511-4.024,4.785c-0.742-0.435-1.543-0.758-2.378-0.961c1.499-0.989,2.679-2.391,3.397-4.037
	c4.526-0.073,8.173-3.345,8.173-7.385c0-4.086-3.727-7.399-8.324-7.399c-1.007,0.004-2.006,0.174-2.958,0.503
	c-0.698-2.974-3.675-4.819-6.649-4.121c-2.974,0.698-4.818,3.675-4.121,6.648c0.038,0.162,0.083,0.321,0.135,0.478
	c-0.119,0.083-0.225,0.18-0.34,0.268c-0.289-0.027-0.569-0.078-0.866-0.078c-1.007,0.005-2.006,0.175-2.958,0.504
	c-0.035-0.14-0.093-0.269-0.138-0.404c0.64-2.941-1.227-5.845-4.168-6.485c-0.492-0.106-0.995-0.145-1.497-0.114
	c-1.725-4.803-7.016-7.298-11.819-5.574c-4.803,1.725-7.298,7.017-5.574,11.819c0.569,1.586,1.563,2.987,2.871,4.049
	c-0.637,0.073-1.264,0.209-1.873,0.408c-0.716-2.951-3.688-4.764-6.64-4.048c-0.793,0.192-1.534,0.559-2.168,1.073
	c-1.669-1.983-4.14-3.113-6.732-3.078c-1.006,0.004-2.006,0.175-2.958,0.503c-0.698-2.974-3.675-4.818-6.649-4.121
	c-2.974,0.698-4.819,3.675-4.121,6.649c0.038,0.161,0.083,0.321,0.135,0.478c-2.492,1.723-3.979,4.559-3.98,7.589
	c0,0.029,0.009,0.055,0.009,0.083c-1.312-0.199-2.653-0.054-3.892,0.42c-0.698-2.974-3.675-4.819-6.649-4.121
	c-2.974,0.698-4.819,3.675-4.121,6.649c0.038,0.161,0.083,0.321,0.135,0.478c-4.212,2.852-5.316,8.579-2.463,12.792
	c2.144,3.167,6.021,4.68,9.743,3.801c0.868,5.015,5.637,8.377,10.652,7.51c2.958-0.512,5.48-2.431,6.762-5.145
	c2.175,4.603,7.67,6.571,12.273,4.396c2.026-0.958,3.634-2.621,4.523-4.679c1.09-0.015,2.168-0.224,3.185-0.617
	c1.677,4.806,6.933,7.342,11.738,5.666c2.435-0.85,4.402-2.681,5.425-5.049c1.349-0.027,2.674-0.355,3.88-0.96
	c2.504,4.426,8.121,5.983,12.546,3.48c1.749-0.99,3.126-2.524,3.921-4.37c0.496-0.012,0.991-0.063,1.479-0.154
	c1.945,4.717,7.347,6.965,12.064,5.02c2.221-0.916,3.999-2.661,4.955-4.866c0.727-0.021,1.448-0.126,2.149-0.316
	c3.817,1.063,7.88-0.488,10.016-3.825c-1.276,4.944,1.698,9.986,6.642,11.262c4.403,1.136,8.979-1.099,10.79-5.27
	c1.349-0.027,2.674-0.355,3.879-0.96c2.504,4.426,8.122,5.983,12.547,3.48c1.749-0.99,3.126-2.524,3.921-4.37
	c1.349-0.026,2.674-0.354,3.88-0.959c2.474,4.408,8.053,5.976,12.461,3.502c0.439-0.247,0.857-0.529,1.25-0.844
	c0.909,5.004,5.702,8.325,10.707,7.417c2.311-0.419,4.375-1.706,5.768-3.597c4.026,3.086,9.792,2.323,12.878-1.703
	c0.464-0.604,0.85-1.265,1.15-1.965c4.526-0.074,8.172-3.345,8.172-7.385C271.914,194.955,268.188,191.642,263.59,191.642z
	 M98.259,187.825c-0.01,0.044-0.016,0.09-0.026,0.135c-0.067-0.003-0.131-0.018-0.2-0.018c-0.276,0.007-0.552,0.035-0.824,0.083
	c0.015-0.034,0.036-0.063,0.051-0.097C97.595,187.913,97.928,187.878,98.259,187.825z M175.542,184.747
	c-0.027-0.108-0.073-0.207-0.106-0.312c1.413-0.979,2.526-2.332,3.216-3.905c2.46-0.013,4.799-1.072,6.432-2.912
	c-0.071,0.354-0.107,0.714-0.108,1.076c0.008,0.564,0.102,1.125,0.281,1.66c-1.588,1.107-2.791,2.684-3.438,4.508
	C179.805,184.079,177.58,184.038,175.542,184.747L175.542,184.747z M230.944,185.437c-0.004-0.113,0.01-0.23,0.003-0.342
	c0.236-0.001,0.471-0.017,0.705-0.048c0.359,1.197,0.958,2.308,1.762,3.265c-0.174,0.049-0.358,0.078-0.528,0.136
	C232.586,187.257,231.904,186.199,230.944,185.437z"/>
<path fill="#3F3D56" d="M72.272,202.741c-10.667-0.001-19.314,8.646-19.315,19.313c0,0.347,0.009,0.693,0.027,1.039l12.526,172.244
	c0.548,10.252,9.021,18.283,19.287,18.282h161.507c10.266,0.001,18.738-8.03,19.287-18.282l12.526-172.244
	c0.573-10.651-7.598-19.75-18.249-20.323c-0.346-0.019-0.693-0.028-1.04-0.028H72.272z"/>
<rect x="81.385" y="202.741" fill="#6C63FF" width="11.099" height="210.877"/>
<rect x="112.832" y="202.741" fill="#6C63FF" width="11.099" height="210.877"/>
<rect x="144.278" y="202.741" fill="#6C63FF" width="11.099" height="210.877"/>
<rect x="175.725" y="202.741" fill="#6C63FF" width="11.099" height="210.877"/>
<rect x="207.172" y="202.741" fill="#6C63FF" width="11.099" height="210.877"/>
<rect x="254.342" y="207.927" fill="#6C63FF" width="11.099" height="210.877"/>
<path id="a971f948-84ae-4583-a462-a09341ab7c50" fill="#3F3D56" d="M452.307,165.377l-4.838-11.785l-64.513,26.485
	c-2.987,1.228-4.938,4.138-4.938,7.368v69.699h12.741v-66.483L452.307,165.377z"/>
<g>
	<defs>
		<path id="SVGID_1_" d="M452.307,165.377l-4.838-11.785l-64.513,26.485c-2.987,1.228-4.938,4.138-4.938,7.368v69.699h12.741
			v-66.483L452.307,165.377z"/>
	</defs>
	<clipPath id="SVGID_2_">
		<use xlink:href="#SVGID_1_"  overflow="visible"/>
	</clipPath>
	<g clip-path="url(#SVGID_2_)">
		<rect x="430.123" y="140.786" fill="#6C63FF" width="13.894" height="44"/>
		<rect x="408.127" y="150.047" fill="#6C63FF" width="13.892" height="44"/>
		<polygon fill="#6C63FF" points="400.594,187.681 390.754,190.575 386.701,143.68 400.594,143.68 		"/>
		<rect x="364.698" y="192.891" fill="#6C63FF" width="44" height="13.893"/>
		<rect x="364.704" y="212" fill="#6C63FF" width="44.002" height="13.893"/>
		<rect x="364.698" y="231.109" fill="#6C63FF" width="44" height="13.893"/>
	</g>
</g>
<polygon fill="#3F3D56" points="430.123,462.705 345.016,462.705 324.17,254.265 448.653,254.265 "/>
<rect x="315.486" y="250.791" fill="#3F3D56" width="142.43" height="13.893"/>
<circle fill="#3AD29F" cx="315.543" cy="117.449" r="47.867"/>
<linearGradient id="SVGID_3_" gradientUnits="userSpaceOnUse" x1="495.7266" y1="134.9609" x2="495.7266" y2="87.8804" gradientTransform="matrix(1 0 0 1 -172.4458 6.0283)">
	<stop  offset="0" style="stop-color:#000000;stop-opacity:0.12"/>
	<stop  offset="0.55" style="stop-color:#000000;stop-opacity:0.09"/>
	<stop  offset="1" style="stop-color:#000000;stop-opacity:0.02"/>
</linearGradient>
<polygon fill="url(#SVGID_3_)" points="347.236,117.449 299.327,140.989 299.327,117.449 299.327,93.909 "/>
<polygon fill="#FFFFFF" points="344.357,117.449 302.2,138.167 302.2,117.449 302.2,96.731 "/>
<path opacity="0.2" fill="#FFFFFF" enable-background="new    " d="M271.592,122.945c0.021-26.444,21.477-47.864,47.919-47.844
	c14.256,0.011,27.766,6.374,36.853,17.357c-13.739-22.595-43.193-29.774-65.788-16.036c-22.596,13.739-29.774,43.194-16.035,65.789
	c1.221,2.008,2.589,3.924,4.091,5.732C274.015,140.423,271.578,131.769,271.592,122.945z"/>
<path fill="#3F3D56" d="M388.805,492.646c-1.163,0.002-2.104,0.942-2.105,2.104v56.714c0.002,1.162,0.942,2.103,2.105,2.104h97.63
	c1.161-0.002,2.104-0.942,2.106-2.104V494.75c-0.003-1.162-0.945-2.103-2.106-2.104H388.805z"/>
<path fill="#FF6584" d="M399.714,497.647c-2.165,0.002-3.919,1.757-3.92,3.922v43.075c0.001,2.165,1.755,3.92,3.92,3.921h75.811
	c2.166-0.001,3.92-1.756,3.922-3.921v-43.075c-0.002-2.165-1.756-3.92-3.922-3.922H399.714z"/>
<rect x="339.046" y="511.327" fill="#3F3D56" width="50.855" height="11.779"/>
<path fill="#3F3D56" d="M250.554,492.646c-1.162,0.002-2.103,0.943-2.104,2.104v56.714c0.002,1.161,0.942,2.102,2.104,2.104h97.631
	c1.161-0.003,2.103-0.943,2.104-2.104V494.75c-0.002-1.161-0.943-2.103-2.104-2.104H250.554z"/>
<path fill="#6C63FF" d="M261.465,497.647c-2.166,0.002-3.92,1.756-3.923,3.922v43.075c0.003,2.166,1.757,3.92,3.923,3.921h75.809
	c2.165-0.001,3.921-1.755,3.924-3.921v-43.075c-0.003-2.166-1.759-3.92-3.924-3.922H261.465z"/>
<rect fill="none" width="600" height="600"/>
</svg>
