<?xml version="1.0" encoding="utf-8"?>
<!-- Generator: Adobe Illustrator 16.0.0, SVG Export Plug-In . SVG Version: 6.00 Build 0)  -->
<!DOCTYPE svg PUBLIC "-//W3C//DTD SVG 1.1//EN" "http://www.w3.org/Graphics/SVG/1.1/DTD/svg11.dtd">
<svg version="1.1" id="Capa_1" xmlns="http://www.w3.org/2000/svg" xmlns:xlink="http://www.w3.org/1999/xlink" x="0px" y="0px"
	 width="600px" height="600px" viewBox="0 0 600 600" enable-background="new 0 0 600 600" xml:space="preserve">
<rect fill="none" width="600" height="600"/>
<path id="efdf5e1f-6b90-40c1-9274-afa2b16f39be" fill="#E6E6E6" d="M363.61,578.417c0,0-11.667-28.721,23.337-50.262L363.61,578.417
	z"/>
<path id="af7fe47f-56e6-4bb6-aa0f-d6efaf86a160" fill="#E6E6E6" d="M349.261,577.896c0,0-3.56-20.472-31.108-20.297L349.261,577.896
	z"/>
<polygon fill="#CBCBCB" points="452.834,182.177 437.61,174.09 438.749,173.484 453.973,181.572 "/>
<polygon fill="#CBCBCB" points="439.555,182.177 438.416,181.572 453.639,173.484 454.778,174.09 "/>
<rect x="327.223" y="118.898" transform="matrix(-0.4564 0.8898 -0.8898 -0.4564 585.6844 -115.1886)" fill="#CBCBCB" width="1.611" height="4.833"/>
<path fill="#CBCBCB" d="M415.412,166.997l-8.561-4.386l0.735-1.434l8.56,4.386L415.412,166.997z M398.292,158.225l-8.561-4.387
	l0.735-1.434l8.56,4.387L398.292,158.225z M381.172,149.451l-8.561-4.386l0.734-1.434l8.561,4.386L381.172,149.451z
	 M364.052,140.679l-8.56-4.386l0.734-1.434l8.56,4.386L364.052,140.679z M346.932,131.906l-8.56-4.387l0.734-1.434l8.56,4.386
	L346.932,131.906z"/>
<rect x="425.683" y="169.353" transform="matrix(-0.4559 0.89 -0.89 -0.4559 773.812 -129.5016)" fill="#CBCBCB" width="1.611" height="4.832"/>
<path fill="#E5E5E5" d="M99.986,227.332c0,0.503-0.017,1.002-0.049,1.497c-0.183,2.853-0.903,5.646-2.124,8.231
	c-0.01,0.022-0.021,0.042-0.03,0.063c-0.057,0.12-0.115,0.24-0.175,0.358c-0.363,0.731-0.767,1.442-1.207,2.129
	c-4.088,6.407-11.102,10.354-18.7,10.524l0.226,12.971l2.942-1.549l0.525,0.999l-3.444,1.814l0.421,24.091l0.005,0.322l-2.274,0.506
	l0.005-0.323l0.716-38.829c-6.083-0.087-11.878-2.609-16.088-7c-0.144-0.148-0.286-0.301-0.424-0.453l-0.016-0.017
	c-1.737-1.894-3.141-4.067-4.155-6.429c0.022,0.025,0.046,0.049,0.068,0.074c-4.754-11.117-0.01-24.013,10.817-29.397
	c0.079-0.04,0.159-0.077,0.238-0.117c10.695-5.151,23.553-1.248,29.579,8.979c0.139,0.234,0.273,0.472,0.402,0.712
	C99.047,219.816,99.99,223.544,99.986,227.332z"/>
<circle fill="#E5E5E5" cx="96.915" cy="207.24" r="29.895"/>
<path opacity="0.2" enable-background="new    " d="M74.841,187.272c-6.49,15.183,0.556,32.753,15.739,39.244
	c11.813,5.05,25.531,1.989,34.076-7.603c-6.49,15.184-24.06,22.231-39.243,15.741s-22.231-24.06-15.741-39.243
	C70.944,192.436,72.689,189.687,74.841,187.272z"/>
<polygon fill="#3F3D56" points="98.533,290.523 95.479,289.667 95.486,289.339 96.4,239.61 96.447,237.131 96.447,237.059 
	96.607,228.371 96.839,215.778 96.839,215.776 96.997,207.24 97.081,207.24 97.241,216.488 97.451,228.524 97.601,237.064 
	97.601,237.127 97.608,237.48 97.608,237.482 97.897,254.129 97.928,255.784 98.527,290.192 "/>
<rect x="96.833" y="253.315" transform="matrix(-0.8849 0.4658 -0.4658 -0.8849 306.1196 432.4615)" fill="#3F3D56" width="5.585" height="1.478"/>
<path d="M484.45,110.487c-37.733-2.23-75.581-1.649-113.228,1.741c-18.146,1.64-36.578,3.412-54.389,7.37
	c-14.346,3.188-30.994,8.576-39.933,21.126c-3.795,5.126-4.973,11.732-3.184,17.854c2.131,7.154,7.433,13.109,13.078,17.774
	c12.995,10.735,29.118,16.982,43.521,25.511c26.296,15.572,50.362,36.562,65.81,63.225c6.796,11.732,13.262,27.333,5.693,40.261
	c-7.414,12.666-23.967,17.03-37.467,19.087c-16.919,2.579-34.349,1.88-51.339,0.436c-18.627-1.736-37.15-4.449-55.493-8.127
	c-35.935-6.9-71.543-15.678-107.977-19.67c-18.269-2.148-36.691-2.681-55.053-1.592c-16.583,1.119-33.308,3.741-48.887,9.721
	c-12.004,4.608-24.801,11.579-31.285,23.206c-6.251,11.207-3.813,24.131,2.994,34.471c8.189,12.441,20.959,20.967,34.236,27.197
	c15.117,7.096,31.285,11.693,47.474,15.605c8.211,1.983,16.466,3.776,24.722,5.561c1.723,0.372,2.459-2.273,0.73-2.646
	c-16.649-3.599-33.346-7.207-49.582-12.415c-15.024-4.819-30.399-10.992-42.702-21.112c-9.954-8.187-19.417-20.144-18.83-33.739
	c0.592-13.707,12.092-23.275,23.363-29.166c14.085-7.361,30.088-10.946,45.77-12.82c17.955-2.001,36.062-2.247,54.065-0.735
	c36.349,2.766,71.885,11.046,107.523,18.268c34.622,7.017,70.324,13.513,105.805,11.714c14.063-0.714,29.132-2.729,41.549-9.826
	c5.686-3.251,10.811-7.835,13.7-13.799c2.604-5.675,3.428-12.005,2.362-18.157c-2.014-13.514-10.041-26.045-18.049-36.809
	c-8.78-11.675-18.963-22.224-30.321-31.409c-12.466-10.032-25.907-18.788-40.121-26.136c-7.537-3.968-15.183-7.785-22.365-12.381
	c-6.888-4.407-13.683-9.71-17.889-16.865c-3.637-6.188-4.305-13.25-0.516-19.527c3.833-6.348,10.436-10.775,16.947-14.01
	c15.687-7.795,33.927-9.881,51.09-12.02c36.854-4.575,73.995-6.427,111.123-5.541c9.022,0.212,18.042,0.586,27.054,1.121
	C486.214,113.336,486.209,110.591,484.45,110.487L484.45,110.487z"/>
<path fill="#3F3D56" d="M460.513,22.501l5.699-4.559c-4.429-0.488-6.248,1.926-6.991,3.837c-3.46-1.436-7.225,0.446-7.225,0.446
	l11.403,4.14C462.823,24.83,461.823,23.489,460.513,22.501z"/>
<path fill="#3F3D56" d="M432.852,36.933l5.699-4.559c-4.427-0.488-6.246,1.926-6.991,3.838c-3.46-1.436-7.225,0.446-7.225,0.446
	l11.402,4.14C435.162,39.261,434.161,37.92,432.852,36.933z"/>
<path fill="#3F3D56" d="M460.513,59.783l5.699-4.559c-4.429-0.489-6.248,1.927-6.991,3.838c-3.46-1.437-7.225,0.446-7.225,0.446
	l11.403,4.141C462.823,62.112,461.823,60.771,460.513,59.783z"/>
<g id="e2dfab6d-8627-4cc0-b13e-69de57259a01">
	<circle id="bedd3b2f-f695-46eb-9812-80ad4d1341b6" fill="#FF6583" cx="375.066" cy="49.365" r="17.173"/>
	<path id="efdddea5-7f44-48b8-bec9-83339a7f085f" fill="#6C63FF" d="M428.915,102.281h-84.243c-0.105,0.001-0.211-0.007-0.314-0.025
		l39.844-69.01c0.758-1.341,2.46-1.813,3.801-1.055c0.441,0.249,0.806,0.614,1.055,1.055l26.739,46.31l1.279,2.215L428.915,102.281z
		"/>
	<path id="f8d22fd6-a75d-4da9-80c1-fba8d7f50740" fill="#6C63FF" d="M475.817,102.282h-72.861l14.118-20.508l1.017-1.478
		l18.397-26.726c1.279-1.609,3.622-1.875,5.23-0.595c0.104,0.083,0.204,0.171,0.299,0.265c0.096,0.104,0.184,0.214,0.266,0.33
		L475.817,102.282z"/>
</g>
<path fill="#F1F1F1" d="M355.629,260.558c7.985,3.991,12.846,9.262,12.846,15.044c0,12.454-22.536,22.55-50.336,22.55
	c-12.087,0-23.176-1.909-31.853-5.09c9.216,4.606,22.595,7.507,37.49,7.507c27.799,0,50.336-10.097,50.336-22.551
	C374.112,270.978,366.909,264.693,355.629,260.558z"/>
<path fill="#F1F1F1" d="M373.39,269.113c9.011,4.503,14.496,10.451,14.496,16.975c0,14.053-25.43,25.445-56.799,25.445
	c-13.639,0-26.15-2.155-35.941-5.744c10.399,5.198,25.496,8.47,42.303,8.47c31.369,0,56.798-11.392,56.798-25.445
	C394.246,280.87,386.119,273.779,373.39,269.113z"/>
<path fill="#F1F1F1" d="M348.832,264.326c5.625,2.812,9.05,6.525,9.05,10.598c0,8.775-15.878,15.888-35.464,15.888
	c-7.63,0.099-15.221-1.115-22.44-3.587c6.493,3.245,15.919,5.289,26.412,5.289c19.586,0,35.464-7.113,35.464-15.888
	C361.854,271.667,356.778,267.239,348.832,264.326z"/>
<path fill="#3F3D56" d="M269.787,262.715c0,0,1.236,18.069,36.673,18.069c35.438,0,46.018-18.069,46.018-18.069H269.787z"/>
<path fill="#3F3D56" d="M320.086,215.306c-5.116-3.887-11.537-5.643-17.918-4.901c13.401,3.231,21.647,16.715,18.416,30.117
	c-2.457,10.193-11.022,17.764-21.439,18.951c13.404,3.236,26.894-5.007,30.129-18.411
	C331.603,231.414,327.996,221.302,320.086,215.306L320.086,215.306z"/>
<rect x="306.058" y="207.144" fill="#3F3D56" width="2.417" height="57.513"/>
<path fill="#CBCBCB" d="M467.261,164.412l-0.013-0.022l-0.032-1.405l7.57-10.99l-7.562,9.938l-0.026,0.297l-0.259-11.233
	l6.536-11.394l-6.555,9.421l0.068-23.272v-0.078l-0.002,0.077l-0.435,18.341l-5.959-7.45l5.939,9.031l-0.13,10.047l-5.483-9.806
	l5.464,11.283l-0.074,5.586l-0.199,15.479l-0.015,1.157c0.504,0.003,1.004-0.005,1.499-0.025l-0.343-14.867L467.261,164.412z"/>
<path fill="#CBCBCB" d="M431.02,169.244l-0.014-0.022l-0.032-1.405l7.569-10.99l-7.561,9.938l-0.027,0.297l-0.259-11.233
	l6.539-11.394l-6.557,9.421l0.067-23.272v-0.077l-0.002,0.076l-0.434,18.341l-5.958-7.45l5.938,9.03l-0.131,10.048l-5.482-9.806
	l5.463,11.283l-0.073,5.587l-0.2,15.479l-0.015,1.157c0.506,0.004,1.005-0.004,1.5-0.025l-0.344-14.867L431.02,169.244z"/>
<path fill="#CBCBCB" d="M448.738,153.941l-0.015-0.021l-0.032-1.405l7.57-10.99l-7.562,9.938l-0.026,0.297l-0.259-11.233
	l6.538-11.394l-6.557,9.42l0.068-23.272v-0.077l-0.002,0.076l-0.435,18.341l-5.957-7.451l5.938,9.031l-0.13,10.048l-5.482-9.806
	l5.463,11.283l-0.073,5.587l-0.2,15.479l-0.015,1.157c0.506,0.004,1.004-0.004,1.499-0.025l-0.343-14.868L448.738,153.941z"/>
<circle fill="#6C63FF" cx="149.411" cy="411.711" r="9.665"/>
<polygon fill="#FFB7B7" points="536.558,561.09 527.61,564.414 510.529,531.485 523.736,526.579 "/>
<path fill="#2F2E41" d="M542.062,568.915l-28.85,10.719l-0.136-0.365c-2.304-6.201,0.856-13.096,7.057-15.401l0,0l17.622-6.547
	L542.062,568.915z"/>
<polygon fill="#FFB7B7" points="448.506,570.382 438.961,570.381 434.418,533.564 448.507,533.565 "/>
<path fill="#2F2E41" d="M450.16,579.634l-30.776-0.002v-0.389c0-6.615,5.363-11.979,11.979-11.979h0.002h18.798L450.16,579.634z"/>
<path fill="#2F2E41" d="M492.205,315.044l-3.114-6.229l-26.472,13.236l0.779,5.449l-5.061,6.617c0,0-8.563,4.672-7.007,20.244
	l1.557,14.792l1.947,19.074l-13.626,47.103l-7.007,62.285l-5.061,50.217l24.524-1.167l22.579-81.749l39.706,87.977l27.249-7.007
	l-37.37-87.198l-4.672-36.593c0,0,3.115-19.464-11.678-32.699l2.336-7.007v-8.635l7.786-41.193L492.205,315.044z"/>
<rect x="453.261" y="434.095" transform="matrix(-0.2715 0.9624 -0.9624 -0.2715 1034.6548 85.9202)" opacity="0.2" enable-background="new    " width="63.096" height="0.915"/>
<rect x="453.276" y="388.229" fill="#3F3D56" width="38.15" height="3.894"/>
<ellipse fill="#3F3D56" cx="453.276" cy="390.564" rx="1.559" ry="3.893"/>
<circle fill="#FFB7B7" cx="470.481" cy="286.766" r="20.753"/>
<circle fill="#2F2E41" cx="502.238" cy="260.998" r="18.359"/>
<path fill="#2F2E41" d="M525.535,259.031c2.894,9.719-2.64,19.943-12.357,22.836c-9.72,2.893-19.942-2.641-22.836-12.359
	c-0.286-0.964-0.493-1.949-0.62-2.947c2.895,9.718,13.12,15.25,22.838,12.355C521.166,276.353,526.656,267.941,525.535,259.031z"/>
<path fill="#2F2E41" d="M453.005,281.004c-1.351,11.912,7.209,22.664,19.12,24.017c11.912,1.353,22.665-7.207,24.018-19.12
	c1.353-11.911-7.207-22.664-19.12-24.016c-3.769-0.429-7.582,0.139-11.063,1.644c-3.625-2.924-8.122-2.018-11.776,1.068
	c-4.131,3.489-5.357,5.886-8.563,11.624C448.771,276.664,449.854,280.562,453.005,281.004z"/>
<path fill="#6C63FF" d="M529.29,343.415c-0.232,6.149-0.693,18.255-0.693,18.873c0,0.651-9.177,19.654-13.142,27.832v0.004
	c-0.282,0.576-0.534,1.099-0.76,1.56c-0.626,1.296-1.949,2.109-3.388,2.081l-17.327-0.311c-1.979-0.034-3.58-1.621-3.628-3.6
	l-1.934-76.229c-0.027-1.04,0.795-1.905,1.837-1.932c0.015,0,0.03-0.001,0.047-0.001h22.345c1.927,0.001,3.682,1.104,4.52,2.837
	l10.726,22.188C528.896,338.802,529.378,341.101,529.29,343.415L529.29,343.415z"/>
<path fill="#6C63FF" d="M490.051,384.623c-4.446-2.694-8.442-6.07-11.84-10.005c-7.895-8.88-12.696-20.081-13.683-31.922
	c-0.881-10.131,1.129-17.661,5.974-22.382c6.16-6.002,14.543-5.13,14.896-5.089l0.376,0.042l5.679,4.807l-1.606,1.899l-5.082-4.301
	c-1.555-0.077-7.906-0.095-12.545,4.443c-4.271,4.177-6.024,11.028-5.213,20.365c0.939,11.273,5.498,21.941,12.999,30.41
	c3.236,3.743,7.028,6.965,11.245,9.553L490.051,384.623z"/>
<rect x="491.785" y="358.764" transform="matrix(-0.9796 0.2012 -0.2012 -0.9796 1076.3633 608.972)" fill="#3F3D56" width="30.908" height="0.828"/>
<rect x="502.493" y="311.672" transform="matrix(-0.9992 0.0412 -0.0412 -0.9992 1019.2204 650.5579)" fill="#3F3D56" width="0.83" height="48.214"/>
<path fill="#3F3D56" d="M529.29,343.415c-0.232,6.149-0.693,18.255-0.693,18.873c0,0.651-9.177,19.654-13.142,27.832l7.389-42.912
	c0.583-3.361,2.93-6.147,6.143-7.294C529.234,341.063,529.337,342.239,529.29,343.415z"/>
<path fill="#FFB7B7" d="M483.884,433.344c2.473-3.185,1.894-7.771-1.291-10.243c-0.339-0.264-0.702-0.496-1.083-0.696l1.501-16.615
	l-9.873-3.376l-1.792,23.494c-1.643,3.706,0.03,8.042,3.736,9.685C478.183,436.967,481.821,436.037,483.884,433.344L483.884,433.344
	z"/>
<path fill="#CBCBCB" d="M485.174,417.268l-17.497-0.636l0.741-84.379c-0.026-4.896,3.081-9.263,7.715-10.841
	c2.112-0.702,4.395-0.703,6.509-0.007c4.93,1.669,8.103,6.469,7.705,11.659L485.174,417.268z"/>
<path fill="#CBCBCB" d="M589.892,579.921h-299.95c-0.435,0-0.787-0.409-0.787-0.915s0.352-0.915,0.787-0.915h299.95
	c0.435,0,0.787,0.409,0.787,0.915S590.326,579.921,589.892,579.921z"/>
</svg>
