<?xml version="1.0" encoding="utf-8"?>
<!-- Generator: Adobe Illustrator 16.0.0, SVG Export Plug-In . SVG Version: 6.00 Build 0)  -->
<!DOCTYPE svg PUBLIC "-//W3C//DTD SVG 1.1//EN" "http://www.w3.org/Graphics/SVG/1.1/DTD/svg11.dtd">
<svg version="1.1" id="Capa_1" xmlns="http://www.w3.org/2000/svg" xmlns:xlink="http://www.w3.org/1999/xlink" x="0px" y="0px"
	 width="600px" height="600px" viewBox="0 0 600 600" enable-background="new 0 0 600 600" xml:space="preserve">
<path fill="#F0F0F0" d="M418.889,547.763c-0.108,0.621-0.256,1.24-0.427,1.853h-37.519c-0.629-0.612-1.25-1.231-1.854-1.853
	c-6.233-6.258-11.456-13.445-15.485-21.306c-3.009-6.022-5.047-12.484-6.036-19.144c-1.954-13.137,0.31-26.754,8.036-37.356
	c0.193-0.272,0.396-0.543,0.597-0.807c0.077,0.341,0.162,0.674,0.256,1.016c1.169,4.675,2.716,9.247,4.627,13.671
	c0.14,0.342,0.286,0.683,0.441,1.023c4.691,10.562,11.301,20.161,19.493,28.313c1.859,1.851,3.796,3.619,5.805,5.301
	c1.551,1.294,3.142,2.534,4.773,3.72c3.876,2.821,8.169,5.596,11.557,8.952c2.633,2.446,4.551,5.562,5.55,9.015
	c0.015,0.06,0.031,0.114,0.047,0.177C419.326,542.775,419.374,545.306,418.889,547.763z"/>
<path fill="#FFFFFF" d="M406.271,547.763c-0.017,0.621-0.047,1.24-0.093,1.853h-0.9c0.054-0.62,0.094-1.239,0.108-1.853
	c0.045-1.149,0.004-2.298-0.123-3.44c-0.427-3.704-1.969-7.301-5.24-9.333c-0.956-0.579-1.975-1.047-3.037-1.394
	c-2.101-0.713-4.34-1.086-6.479-1.604c-0.52-0.124-1.031-0.264-1.528-0.41c-2.775-0.777-5.351-2.144-7.55-4.007
	c-2.65-2.415-4.872-5.261-6.571-8.418c-1.132-1.992-2.163-4.045-3.092-6.146c-0.124-0.271-0.249-0.542-0.356-0.814
	c-5.671-13.309-7.675-27.894-5.807-42.24c0.032-0.278,0.07-0.549,0.108-0.827c0.079-0.559,0.939-0.335,0.853,0.231
	c-0.038,0.271-0.077,0.535-0.107,0.807c-0.759,5.823-0.87,11.713-0.334,17.563c0.031,0.301,0.063,0.597,0.085,0.883
	c0.828,8.099,2.895,16.023,6.131,23.492c0.04,0.084,0.07,0.163,0.116,0.248v0.015c0.768,1.736,1.598,3.441,2.488,5.115
	c1.621,3.208,3.737,6.14,6.271,8.689c2.142,2.039,4.729,3.554,7.557,4.425c0.277,0.086,0.564,0.171,0.852,0.248
	c0.225,0.069,0.457,0.132,0.689,0.186c2.179,0.542,4.435,0.922,6.588,1.612c0.979,0.303,1.928,0.692,2.838,1.163
	c3.003,1.643,5.162,4.491,5.929,7.827C406.157,543.638,406.361,545.701,406.271,547.763z"/>
<path fill="#FFFFFF" d="M372.163,512.875c-5.482,2.003-11.607-0.262-14.467-5.348c-0.28-0.498,0.483-0.955,0.762-0.456
	c2.656,4.743,8.373,6.843,13.468,4.947C372.462,511.82,372.695,512.679,372.163,512.875L372.163,512.875z"/>
<path fill="#FFFFFF" d="M388.656,530.842c2.483-5.215,2.907-11.175,1.191-16.689c-0.171-0.546,0.687-0.782,0.855-0.235
	c1.775,5.741,1.321,11.941-1.272,17.362C389.182,531.797,388.41,531.355,388.656,530.842L388.656,530.842z"/>
<path fill="#FFFFFF" d="M365.858,487.775c2.243-0.327,4.173-1.761,5.134-3.816c0.242-0.519,1.013-0.077,0.774,0.439
	c-1.072,2.265-3.196,3.85-5.673,4.234c-0.235,0.056-0.475-0.079-0.546-0.311C365.483,488.086,365.622,487.842,365.858,487.775
	L365.858,487.775z"/>
<path fill="#F0F0F0" d="M434.839,547.763c0.016,0.412,0.007,0.814-0.007,1.217c-0.008,0.209-0.016,0.428-0.032,0.636h-35.116
	c-0.147-0.62-0.287-1.231-0.428-1.853c-1.055-4.67-1.813-9.401-2.27-14.167c-0.032-0.318-0.063-0.629-0.086-0.954v-0.007
	c-0.41-4.708-0.436-9.441-0.077-14.152v-0.008c0.21-2.573,0.542-5.132,1.007-7.688c1.217-6.574,3.457-12.917,6.643-18.795
	c0.016-0.024,0.023-0.047,0.038-0.069c6.356-11.688,16.37-21.222,28.934-25.042h0.009l0.006-0.008
	c0.318-0.086,0.636-0.179,0.954-0.271c-0.14,0.315-0.28,0.65-0.411,0.976c-0.008,0.008-0.016,0.008-0.008,0.016
	c-1.879,4.426-3.393,8.999-4.525,13.672c-0.094,0.363-0.188,0.721-0.264,1.084v0.009c-2.618,11.285-3.118,22.96-1.473,34.428
	c0.341,2.325,0.768,4.634,1.279,6.929c0.487,2.208,1.069,4.395,1.729,6.556c1.325,4.333,2.968,8.868,3.711,13.34v0.007
	C434.688,544.986,434.817,546.373,434.839,547.763z"/>
<path fill="#FFFFFF" d="M434.583,466.988c-0.194,0.194-0.388,0.388-0.581,0.589c-0.008,0.008-0.016,0.008-0.008,0.016
	c-4.107,4.183-7.735,8.81-10.819,13.795c-0.163,0.248-0.318,0.504-0.466,0.76c-4.229,6.965-7.351,14.546-9.254,22.469
	c-0.021,0.077-0.038,0.163-0.062,0.248c-0.434,1.846-0.798,3.712-1.093,5.587c-0.638,3.537-0.718,7.151-0.233,10.712
	c0.479,2.921,1.635,5.688,3.372,8.083c0.031,0.049,0.065,0.096,0.101,0.141c0.141,0.194,0.288,0.396,0.435,0.582
	c0.139,0.186,0.286,0.371,0.434,0.557c2.063,2.536,4.457,4.898,5.86,7.89c0.422,0.902,0.72,1.856,0.882,2.837
	c0.363,2.192,0.128,4.441-0.681,6.511c-0.062,0.156-0.124,0.318-0.187,0.473c-0.193,0.474-0.411,0.931-0.643,1.38h-1.008
	c0.331-0.598,0.623-1.217,0.876-1.853c0.898-2.111,1.151-4.441,0.728-6.696c-0.107-0.524-0.26-1.037-0.457-1.534
	c-1.217-3.14-3.689-5.573-5.789-8.122c-0.442-0.535-0.861-1.078-1.256-1.636c-1.604-2.197-2.738-4.701-3.333-7.354
	c-0.666-3.524-0.729-7.137-0.186-10.682c0.293-2.275,0.708-4.533,1.24-6.765c0.055-0.296,0.123-0.582,0.202-0.869
	c1.307-5.312,3.159-10.476,5.525-15.407c3.849-8.066,9.008-15.44,15.27-21.817l0.006-0.008c0.188-0.193,0.381-0.388,0.574-0.581
	C434.436,465.887,434.987,466.584,434.583,466.988z"/>
<path fill="#FFFFFF" d="M412.848,505.101c-5.582-1.701-9.109-7.196-8.331-12.98c0.078-0.566,0.962-0.471,0.883,0.095
	c-0.733,5.387,2.566,10.505,7.775,12.06C413.723,504.439,413.393,505.264,412.848,505.101L412.848,505.101z"/>
<path fill="#FFFFFF" d="M415.201,529.377c5.122-2.671,9.048-7.173,10.998-12.608c0.193-0.539,1.019-0.212,0.827,0.325
	c-2.04,5.654-6.137,10.332-11.474,13.098C415.045,530.454,414.694,529.639,415.201,529.377z"/>
<path fill="#FFFFFF" d="M422.926,481.264c1.988,1.09,4.393,1.107,6.397,0.045c0.505-0.27,0.854,0.548,0.354,0.816
	c-2.22,1.162-4.871,1.148-7.078-0.035c-0.222-0.097-0.331-0.349-0.249-0.577C422.44,481.286,422.698,481.174,422.926,481.264
	L422.926,481.264z"/>
<circle fill="#2F2E41" cx="467.799" cy="110.05" r="32.666"/>
<polygon fill="#FFB6B6" points="452.88,522.484 440.279,519.858 444.414,470.003 463.014,473.879 "/>
<path fill="#2F2E41" d="M454.231,516.01l-13.331-3.611l-2.132-0.581l-1.775,8.533l-7.981,3.363l-9.758,4.106l-0.017,0.01
	l-3.697,1.557l-0.209,0.093c-0.123,0.055-0.24,0.109-0.356,0.171h-0.007c-0.079,0.038-0.155,0.085-0.233,0.124
	c-0.607,0.353-1.146,0.819-1.581,1.372c-1.852,2.375-1.426,5.802,0.95,7.653c0.654,0.51,1.416,0.863,2.228,1.034l2.419,0.504
	l3.486,0.729l0.914,0.186l11.301,2.357v0.007l5.596,1.163l5.844-7.596l-0.163,8.773l8.65,1.806l0.294,0.063l0.008-0.063
	l3.767-30.606L454.231,516.01z"/>
<polygon fill="#FFB6B6" points="518.674,509.523 507.629,516.133 476.878,476.674 493.181,466.919 "/>
<path fill="#2F2E41" d="M537.169,526.938l-18.014-25.104l-3.875,2.015l-12.253,6.379l-1.96,1.016l4.479,7.479l-9.742,21.398
	c-1.244,2.737-0.035,5.965,2.702,7.21c0.468,0.212,0.966,0.357,1.476,0.432c0.528,0.077,1.066,0.077,1.597,0
	c0.701-0.103,1.376-0.345,1.983-0.713l20.787-12.438l-0.846-9.541l5.828,6.563L537.169,526.938z"/>
<polygon fill="#FFB8B8" points="489.983,282.715 429.315,280.381 425.816,217.381 495.815,217.381 "/>
<path fill="#FFB6B6" d="M528.49,325.948c-3.979-3.601-4.285-9.747-0.684-13.725c0.385-0.426,0.805-0.814,1.258-1.164l-11.015-32.73
	l17.35,4.584l7.8,30.378c3.013,4.477,1.826,10.548-2.65,13.561C536.804,329.374,531.818,329,528.49,325.948z"/>
<circle fill="#FFB8B8" cx="462.811" cy="121.028" r="23.103"/>
<polygon fill="#2F2E41" points="486.371,105.088 462.935,86.765 443.744,91.137 436.032,117.692 447.513,117.119 450.72,107.407 
	450.72,116.959 456.018,116.694 459.091,101.231 461.015,117.692 479.846,117.194 "/>
<path fill="#2F2E41" d="M428.15,266.381c0,0-20.213,35.13-0.7,88.431l53.899,137.437l25.768-15.231l-26.266-59.17l21.365-72.423
	c4.919-16.414,6.435-33.658,4.456-50.679c-1.54-12.736-7.661-18.678-15.524-30.698C464.895,280.982,429.283,274.262,428.15,266.381z
	"/>
<polygon fill="#2F2E41" points="455.013,407.385 437.022,490.95 463.047,495.856 477.865,425.607 "/>
<path fill="#E4E4E4" d="M479.076,150.041l-29.87,0.398l-9.723,12.344l-15.65,3.691l-4.067,23.506
	c-2.033,11.751,0.125,19.193,6.1,29.515l0,0l0.716,20.305l-0.791,1.437c-0.81,1.471-0.382,3.315,0.993,4.28l0,0
	c-0.561,1.412-0.625,2.971-0.186,4.424l0.386,1.274c0,0,1.113,8.9,64.182-0.46c2.749-0.407,4.894-2.587,5.255-5.343l0,0l0,0
	c1.405-1.413,1.753-3.566,0.859-5.35l-0.128-0.257l0.647-0.763c1.484-1.747,1.587-4.278,0.254-6.141l0,0l9.064-64.842l-18.725-5.832
	L479.076,150.041z"/>
<path fill="#E4E4E4" d="M499.64,174.266l7.478-6.206c0,0,6.648,1.965,11.291,15.06c4.643,13.094,20.573,112.428,20.573,112.428
	l-18.666-9.333l-26.468-72.981L499.64,174.266z"/>
<path fill="#FFB6B6" d="M333.572,280.021c5.309,0.792,10.254-2.871,11.045-8.179c0.085-0.566,0.118-1.139,0.103-1.711l32.288-12.248
	l-14.551-10.503l-28.431,13.242c-5.372,0.511-9.313,5.28-8.802,10.651C325.651,275.768,329.104,279.384,333.572,280.021z"/>
<path fill="#E4E4E4" d="M432.504,173.699l-5.069-8.29c0,0-6.927-0.29-15.555,10.6c-4.422,5.583-33.085,53.469-33.085,53.469
	l-26.506,22.093l21.701,7.75l25.576-10.851l28.678-47.277L432.504,173.699z"/>
<path fill="#2F2E41" d="M542.697,115.178c-6.805-7.713-11.103-17.252-15.549-26.525c-4.447-9.273-9.299-18.643-16.873-25.598
	c-7.576-6.956-18.494-11.127-28.334-8.14c-9.842,2.987-16.936,14.719-12.763,24.119l0.349,1.508
	c23.585,0.975,46.264,14.655,58.127,35.062c5.6,9.632,9.063,20.781,16.982,28.618c13.102,12.965,34.233,12.855,47.2-0.247
	c4.207-4.252,7.195-9.558,8.65-15.361C580.979,136.658,556.656,131.002,542.697,115.178z"/>
<path fill="#3F3D56" d="M326.068,514.312H15.594C7.538,514.303,1.009,507.773,1,499.718V282.442
	c0.009-8.057,6.538-14.585,14.594-14.595h310.475c6.777-0.021,12.671,4.643,14.205,11.244l0,0c0.262,1.097,0.392,2.222,0.391,3.351
	v217.276C340.654,507.773,334.125,514.303,326.068,514.312z M15.594,272.498c-5.489,0.006-9.938,4.455-9.943,9.944v217.276
	c0.006,5.49,4.455,9.938,9.943,9.943h310.475c5.491-0.006,9.939-4.453,9.945-9.943V282.442c0.001-0.761-0.086-1.52-0.262-2.261
	l-0.003-0.014c-1.083-4.476-5.075-7.639-9.681-7.669H15.594z"/>
<path fill="#6C63FF" d="M338.014,279.636c-1.311-5.54-6.252-9.456-11.945-9.464H15.594c-6.773,0.007-12.262,5.496-12.269,12.27
	v217.276c0.007,6.773,5.496,12.263,12.269,12.269h310.475c6.774-0.006,12.263-5.495,12.27-12.269V282.442
	C338.342,281.497,338.232,280.555,338.014,279.636z"/>
<path fill="#FF6582" d="M133.667,288.324c-3.674-1.861-8.094-2.652-11.94-1.178c-3.7,1.418-6.404,4.754-7.952,8.402
	c-1.548,3.648-2.09,7.631-2.618,11.558c-0.21,1.565-0.223,3.539,1.176,4.269c1.045,0.421,2.24,0.154,3.008-0.669
	c0.734-0.817,1.329-1.75,1.761-2.76c4.479-8.348,13.119-13.625,22.591-13.8l3.741,1.675
	C140.414,293.021,137.341,290.186,133.667,288.324z"/>
<path fill="#FFFFFF" d="M174.154,320.956c-2.903-4.802-6.343-9.929-11.73-11.497c-6.239-1.814-12.648,1.793-18.084,5.352
	c-16.257,10.643-31.913,22.18-46.897,34.553l0.017,0.187c11.665-0.804,23.33-1.609,34.995-2.413
	c8.428-0.581,17.146-1.243,24.593-5.23c2.827-1.512,5.582-3.533,8.785-3.674c3.979-0.175,7.448,2.604,10.175,5.508
	c16.128,17.173,20.795,43.437,38.889,58.526C203.486,374.129,189.863,346.938,174.154,320.956z"/>
<path fill="#FFFFFF" d="M60.743,437.246c8.448,0.23,16.87,1.025,25.212,2.378c25.09,4.083,49.146,13.008,70.826,26.282
	c7.21,4.411,14.117,9.299,20.675,14.632c0.804,0.654,1.604,1.315,2.396,1.983c0.51,0.428,1.25-0.305,0.736-0.736
	c-6.511-5.477-13.379-10.514-20.56-15.078c-7.172-4.558-14.634-8.642-22.338-12.227c-7.715-3.592-15.654-6.684-23.768-9.255
	c-8.1-2.569-16.359-4.606-24.725-6.1c-8.344-1.492-16.778-2.43-25.246-2.806c-1.07-0.048-2.14-0.085-3.209-0.114
	c-0.288,0.009-0.513,0.25-0.502,0.538C60.25,437.018,60.47,437.237,60.743,437.246L60.743,437.246z"/>
<path fill="#FFFFFF" d="M58.747,404.342c15.122,1.058,30.25,2.133,45.312,3.872c15.101,1.63,30.075,4.268,44.823,7.895
	c13.04,3.229,25.732,7.726,37.896,13.425c11.392,5.35,22.112,12.027,31.935,19.896c9.699,7.765,18.173,16.945,25.135,27.234
	c0.868,1.302,1.708,2.619,2.521,3.955c0.349,0.571,1.25,0.049,0.899-0.525c-6.571-10.655-14.745-20.232-24.236-28.395
	c-9.564-8.216-20.092-15.234-31.352-20.906c-11.731-5.913-24.021-10.646-36.689-14.132c-14.683-3.988-29.637-6.908-44.742-8.734
	c-15.217-1.955-30.519-3.141-45.817-4.226c-1.896-0.135-3.79-0.269-5.686-0.4C58.078,403.253,58.081,404.295,58.747,404.342z"/>
<path fill="#FFFFFF" d="M57.235,407.867c15.123,1.059,30.25,2.133,45.313,3.872c15.101,1.631,30.074,4.269,44.823,7.896
	c13.039,3.229,25.732,7.725,37.896,13.426c11.393,5.349,22.112,12.027,31.935,19.894c9.699,7.765,18.173,16.947,25.136,27.236
	c0.868,1.3,1.709,2.618,2.522,3.955c0.348,0.57,1.249,0.049,0.898-0.526c-6.57-10.655-14.745-20.233-24.236-28.396
	c-9.564-8.214-20.092-15.234-31.352-20.905c-11.731-5.914-24.021-10.647-36.688-14.131c-14.684-3.99-29.638-6.908-44.743-8.734
	c-15.217-1.956-30.518-3.143-45.817-4.227c-1.895-0.135-3.79-0.268-5.686-0.399C56.566,406.78,56.569,407.822,57.235,407.867
	L57.235,407.867z"/>
<path fill="#FFFFFF" d="M274.332,468.358c-1.784-2.252-3.555-4.514-5.313-6.788c-14.325-18.526-27.789-37.679-40.392-57.457
	c-8.561-13.432-16.697-27.122-24.409-41.071c-3.671-6.632-7.242-13.315-10.712-20.05c-2.692-5.223-5.325-10.477-7.897-15.762
	c-0.737-1.509-1.451-3.025-2.163-4.546c-1.676-3.573-3.321-7.166-5.087-10.691c-2.013-4.018-4.462-8.23-8.158-10.931
	c-1.682-1.279-3.693-2.053-5.799-2.231c-3.008-0.195-5.784,1.048-8.394,2.404c-19.112,10.048-36.95,22.349-53.134,36.642
	c-16.208,14.234-30.696,30.317-43.168,47.918c-0.381,0.545-1.284,0.024-0.898-0.523c1.517-2.146,3.063-4.266,4.64-6.364
	c19.603-26.072,43.64-48.493,71.012-66.237c4.604-2.983,9.296-5.828,14.075-8.533c2.408-1.364,4.827-2.71,7.287-3.973
	c2.412-1.238,4.973-2.353,7.728-2.395c9.376-0.146,14.231,10.473,17.565,17.618c1.048,2.25,2.109,4.49,3.183,6.726
	c4.056,8.483,8.269,16.891,12.637,25.22c2.697,5.144,5.452,10.256,8.267,15.339c8.758,15.826,18.067,31.333,27.927,46.52
	c13.062,20.116,27.041,39.594,41.94,58.433C275.478,468.144,274.746,468.887,274.332,468.358z"/>
<path fill="#FFFFFF" d="M221.397,382.185l13.969-5.108l6.937-2.537c2.24-0.902,4.525-1.689,6.847-2.358
	c2.029-0.58,4.185-0.552,6.198,0.08c1.796,0.664,3.44,1.683,4.834,2.995c1.424,1.313,2.749,2.729,3.965,4.234
	c1.509,1.815,2.998,3.649,4.492,5.477c6.167,7.543,12.296,15.12,18.382,22.728c6.088,7.608,12.133,15.248,18.14,22.922
	c6.02,7.692,11.998,15.416,17.936,23.173c0.728,0.948,1.454,1.899,2.181,2.852c0.401,0.525,1.306,0.008,0.899-0.525
	c-5.982-7.835-12.005-15.637-18.069-23.407c-6.08-7.788-12.201-15.543-18.365-23.267c-6.163-7.722-12.368-15.41-18.616-23.066
	c-1.556-1.906-3.115-3.812-4.676-5.715c-1.317-1.604-2.62-3.228-4.064-4.721c-2.651-2.743-5.964-5.167-9.93-5.233
	c-2.323,0.082-4.612,0.586-6.755,1.485c-2.335,0.846-4.665,1.705-6.997,2.56l-14.067,5.145l-3.517,1.285
	C220.496,381.41,220.766,382.416,221.397,382.185L221.397,382.185z"/>
<path fill="#FF6582" d="M151.904,296.603l-0.934,0.458c-6.116-12.478-21.189-17.634-33.668-11.518
	c-7.975,3.909-13.298,11.734-14.006,20.588c-0.469,5.614,0.981,11.224,4.112,15.908l-0.867,0.575
	c-3.26-4.879-4.77-10.719-4.282-16.566c1.152-14.425,13.781-25.185,28.206-24.032C139.684,282.754,147.833,288.297,151.904,296.603z
	"/>
<path fill="#FFFFFF" d="M83.575,324.578c-7.309-3.601-15.992-2.979-22.714,1.625c12.443,2.147,24.75,5.02,36.858,8.603
	C92.691,331.859,88.758,327.243,83.575,324.578z"/>
<path fill="#FFFFFF" d="M60.792,326.19l-1.367,1.111c0.463-0.389,0.943-0.754,1.437-1.099L60.792,326.19z"/>
<path fill="#FFFFFF" d="M259.655,382.236c-1.375-1.674-2.861-3.426-4.918-4.107l-1.92,0.076
	c14.618,25.831,34.36,48.401,58.016,66.327L259.655,382.236z"/>
<path fill="#FFFFFF" d="M101.949,332.634c-0.544-0.607-1.086-1.215-1.635-1.821c-4.324-4.782-8.963-9.51-14.9-12.25
	c-2.831-1.349-5.921-2.064-9.057-2.1c-3.235,0.088-6.425,0.784-9.404,2.05c-1.416,0.566-2.801,1.208-4.164,1.893
	c-1.558,0.784-3.089,1.62-4.612,2.463c-2.859,1.583-5.681,3.234-8.466,4.956c-5.542,3.424-10.911,7.111-16.105,11.06
	c-2.692,2.047-5.33,4.161-7.911,6.343c-2.402,2.026-4.754,4.106-7.059,6.242c-0.493,0.454-1.228-0.281-0.736-0.735
	c0.608-0.566,1.222-1.128,1.836-1.684c1.735-1.568,3.498-3.106,5.288-4.615c3.265-2.755,6.615-5.404,10.049-7.945
	c5.341-3.956,10.865-7.644,16.573-11.063c2.853-1.708,5.745-3.343,8.676-4.908c0.885-0.471,1.78-0.933,2.686-1.37
	c2.055-1.036,4.19-1.905,6.385-2.599c3.109-1.005,6.397-1.329,9.644-0.948c3.133,0.456,6.151,1.501,8.896,3.078
	c5.831,3.259,10.352,8.297,14.751,13.215C103.128,332.395,102.396,333.133,101.949,332.634z"/>
<polygon fill="#2F2E41" points="28.643,343.458 27.131,343.458 27.131,293.862 80.222,293.862 80.222,295.374 28.643,295.374 "/>
<polygon fill="#2F2E41" points="314.532,343.458 313.021,343.458 313.021,295.374 261.441,295.374 261.441,293.862 314.532,293.862 
	"/>
<polygon fill="#2F2E41" points="314.532,488.296 261.441,488.296 261.441,486.785 313.021,486.785 313.021,438.701 314.532,438.701 
	"/>
<polygon fill="#2F2E41" points="80.222,488.296 27.131,488.296 27.131,438.701 28.643,438.701 28.643,486.785 80.222,486.785 "/>
<rect x="1" fill="none" width="599" height="600"/>
</svg>
